<svg xmlns="http://www.w3.org/2000/svg" width="202.439" height="72.61" viewBox="0 0 202.439 72.61">
  <g id="Group_12117" data-name="Group 12117" transform="translate(-20 -20.301)">
    <g id="Group_12096" data-name="Group 12096" transform="translate(20 20.301)">
      <g id="Group_12077" data-name="Group 12077">
        <g id="Group_12074" data-name="Group 12074" transform="translate(0)">
          <path id="Path_13644" data-name="Path 13644" d="M140.82,182.529l-.047.009c-.066.009-.132.019-.2.033l-.769.16-.155.038c-.255.056-.509.118-.759.184-.32.08-.618.16-.915.25-.165.047-.325.1-.49.151-.071.024-.141.042-.207.066-.057.806-.085,1.613-.085,2.4a33.674,33.674,0,0,0,.957,8.049.066.066,0,0,1,.01-.028c.1-.241.193-.476.3-.712s.2-.453.3-.679.193-.419.292-.622c.085-.174.174-.349.264-.519.066-.137.137-.269.208-.4.08-.156.16-.3.245-.453.071-.132.142-.259.217-.387.179-.316.363-.622.556-.919.085-.141.174-.283.269-.42s.165-.264.255-.391c-.066-.816-.1-1.641-.1-2.518a32.031,32.031,0,0,1,.175-3.357c-.108.019-.212.038-.321.061" transform="translate(-120.221 -159.893)" fill="#d81525"/>
          <path id="Path_13645" data-name="Path 13645" d="M148.255,16.366l0,0s.014,0,.019,0c.033-.01.071-.014.113-.024l.142-.028c.014,0,.033,0,.052-.01l.344-.071.052-.01.165-.028.377-.071c.08-.014.156-.028.236-.038.259-.052.547-.094.839-.137.368-.057.731-.1,1.1-.146.184-.024.382-.042.575-.061.028,0,.057,0,.09-.009,2.688-7.384,7.949-11.952,13.815-11.952,5.846,0,11.1,4.55,13.8,11.91l.17.476c.1.311.207.622.3.938h0l.156.523c.052.179.1.363.151.547.09.349.174.7.255,1.056.038.179.08.358.113.542.113.542.207,1.089.288,1.641l0,0c.009.075.024.156.033.231v.01c.038.264.071.533.094.8a30.759,30.759,0,0,1,.2,3.484c0,.919-.038,1.8-.113,2.692l-.009.09c-.014.146-.033.306-.047.467v0l-.033.335c-.038.311-.08.618-.123.924-.075.547-.179,1.122-.316,1.811l-.047.212c-.047.207-.09.415-.141.618-.09.377-.189.75-.292,1.113-.042.146-.085.3-.132.443-.009.033-.019.071-.028.1v0l-.033.1,0,.019c0,.009,0,.019-.009.028-.024.071-.042.137-.061.2s-.052.151-.075.226c-.047.141-.094.283-.141.42-.085.25-.179.5-.274.759l-1.367,2.989a20.774,20.774,0,0,1-1.311,2.112c-.123.179-.236.339-.358.5a47.257,47.257,0,0,1-3.527,3.763,21.155,21.155,0,0,1-5.158,3.366,27.7,27.7,0,0,0,4.984,1.033c.17.019.344.038.523.052a21.892,21.892,0,0,0,3.447-2.989l.08-.1.061-.033a22.475,22.475,0,0,0,3.008-3.489l.085-.132a.337.337,0,0,1,.024-.028c.009-.014.024-.033.038-.052.09-.127.174-.255.255-.387.189-.273.363-.547.528-.83s.349-.575.5-.868c.212-.373.415-.75.6-1.141.123-.231.231-.462.335-.7s.207-.448.306-.679q.488-1.124.887-2.329c.056-.151.108-.311.16-.467l.024-.075.009-.028a33.185,33.185,0,0,0,1.518-10.052c0-.74-.028-1.495-.076-2.254l-.052-.613a33.021,33.021,0,0,0-.929-5.549l-.141-.552C181.505,6.794,174.272,0,166.177,0c-7.94,0-15.05,6.53-17.969,16.37v0c.014,0,.028,0,.042-.009Z" transform="translate(-129.873)" fill="#d81525"/>
          <path id="Path_13646" data-name="Path 13646" d="M214.73,148.246q.071.325.127.651a1.173,1.173,0,0,1,.038.174q.092.481.17.962a.06.06,0,0,1,0,.028c.057.354.108.712.156,1.066s.09.721.127,1.08a.232.232,0,0,1,.01.056.213.213,0,0,0,0,.052c0,.028,0,.057.009.085,7.384,2.692,11.952,7.95,11.952,13.81s-4.569,11.123-11.952,13.815c-.141.052-.288.1-.434.156a29.046,29.046,0,0,1-5.483,1.3l-.462.061c-.151.019-.3.033-.457.047a31.7,31.7,0,0,1-5.894.075c-.085,0-.17-.009-.255-.019-.264-.014-.538-.047-.811-.076-.019,0-.043,0-.061-.009-.377-.043-.745-.094-1.113-.151a27.6,27.6,0,0,1-5.606-1.448c-.061-.019-.123-.042-.179-.066-.028-.01-.057-.024-.085-.033a20.964,20.964,0,0,1-8.067-5.3c-.113-.1-.226-.207-.339-.316s-.222-.217-.335-.33a20.714,20.714,0,0,1-3.923-5.738c-.061.2-.122.4-.179.608-.108.372-.2.754-.292,1.141-.033.137-.061.273-.09.415l-.042.184c-.023.113-.047.231-.071.349-.047.25-.094.5-.137.754-.042.236-.075.476-.113.717-.028.2-.057.406-.08.613v.009a.589.589,0,0,1,.052.094c0,.009.014.024.019.033.028.056.057.113.085.165s.061.113.09.165a.194.194,0,0,0,.023.043c0,.014.014.024.019.038a0,0,0,0,1,0,0,.282.282,0,0,1,.019.038s0,0,0,.01c.047.08.094.165.141.25s.1.17.151.25c.033.057.066.113.1.17.052.09.108.174.165.264l.028.042c.038.066.085.132.127.193s.071.1.1.151c.1.151.2.3.316.452.076.109.151.212.231.316a.017.017,0,0,0,0,.01c.132.174.269.349.406.519.269.335.556.66.858.985,0,0,.009,0,.009.009a.017.017,0,0,0,0,.01h0a22.535,22.535,0,0,0,3.7,3.183c.547.377,1.108.735,1.693,1.075a28.951,28.951,0,0,0,5.568,2.485l.217.071c.311.1.622.193.934.278q.58.17,1.174.311a33.913,33.913,0,0,0,10.189.891c.245-.014.486-.033.726-.052a32.865,32.865,0,0,0,5.549-.929c.245-.061.49-.127.731-.2,10.071-2.838,16.785-10.033,16.785-18.087,0-7.94-6.53-15.045-16.37-17.964" transform="translate(-158.491 -129.905)" fill="#d81525"/>
          <path id="Path_13647" data-name="Path 13647" d="M323.386,140.056c-.042-.222-.09-.439-.146-.655s-.109-.434-.165-.651-.113-.429-.175-.646-.122-.429-.193-.637c-.009-.033-.019-.066-.028-.094s-.019-.066-.028-.094h-.005c-.853-.057-1.641-.085-2.4-.085a33.832,33.832,0,0,0-8.053.957q.4.156.778.325c.179.076.354.151.528.231.1.042.2.085.292.137.179.08.359.17.538.255a1.919,1.919,0,0,1,.2.1c.33.165.655.335.971.514.208.108.42.226.623.349.259.146.509.3.759.457.146.09.292.184.439.278s.273.174.41.269c.849-.066,1.7-.1,2.518-.1a32.285,32.285,0,0,1,3.348.179h0c-.019-.118-.043-.236-.066-.349a1.691,1.691,0,0,0-.042-.222c-.033-.174-.066-.344-.1-.519" transform="translate(-273.569 -120.22)" fill="#d81525"/>
          <path id="Path_13648" data-name="Path 13648" d="M173.938,214.824a34.15,34.15,0,0,1-3.7.552v0a22.744,22.744,0,0,1-3.56,6.464l-.16.193c-.108.132-.231.273-.354.415s-.259.3-.391.438a17.939,17.939,0,0,1-1.6,1.5c-.061.052-.132.108-.2.165-.137.108-.292.226-.448.34l-.1.075a12.56,12.56,0,0,1-3.593,1.825q-.134.042-.283.085l-.386.1c-.108.028-.241.061-.377.09l-.4.08c-.222.042-.439.071-.655.094s-.443.047-.674.061h-.071c-.123.009-.292.014-.457.014h-.085c-.132,0-.264,0-.4-.009l-.08,0c-.3-.009-.6-.042-.858-.075l-.085-.014a.27.27,0,0,1-.066-.009l-.1-.014c-.019,0-.038,0-.052-.009l-.071-.009a12.492,12.492,0,0,1-1.462-.335,13.411,13.411,0,0,1-1.537-.585l-.368-.179c-.363-.184-.717-.382-1.089-.613-.33-.207-.641-.42-.938-.641s-.589-.457-.9-.726a14.939,14.939,0,0,1-1.273-1.221c-.292-.316-.552-.608-.792-.9-.363-.452-.735-.952-1.094-1.485-.339-.5-.669-1.047-.995-1.627-.207-.387-.405-.769-.6-1.165-.269-.561-.533-1.165-.8-1.848-.061-.16-.122-.316-.179-.476l-.156-.438a29.385,29.385,0,0,1-1.3-5.474l0-.052c-.038-.278-.075-.566-.1-.853-.019-.189-.038-.382-.052-.575-.085-.915-.127-1.862-.127-2.82,0-.684.019-1.348.061-2h-.009l.042-.5.009-.146v-.019l0-.066,0-.033a.08.08,0,0,1,0-.033l.028-.3c.009-.09.019-.174.028-.259,0-.009,0-.014,0-.024,0-.061.014-.122.019-.184.033-.273.066-.547.1-.82s.08-.528.127-.792c.033-.217.075-.434.113-.646v-.005c.01-.052.019-.094.028-.141.052-.259.1-.514.16-.769a.089.089,0,0,0,.009-.038c.056-.254.118-.5.184-.754s.118-.467.184-.7c.151-.533.311-1.056.49-1.57.1-.278.2-.552.3-.82.212-.556.443-1.1.693-1.631q.071-.163.156-.325a20,20,0,0,1,4.451-6.115l.108-.108a20.083,20.083,0,0,1,6.275-4.489c-.222-.071-.448-.132-.679-.2q-.4-.113-.82-.212c-.283-.066-.57-.132-.858-.193s-.57-.113-.858-.165-.585-.1-.877-.142c-.226-.038-.453-.066-.679-.094a0,0,0,0,0,0,0,18.15,18.15,0,0,0-4.248,2.989,21.983,21.983,0,0,0-3.117,3.616v0l-.127.184c-.16.231-.316.467-.471.712q-.219.34-.424.693c-.1.165-.2.33-.288.5-.057.1-.113.2-.17.307-.123.212-.236.429-.344.646-.028.056-.056.113-.085.174-.1.193-.2.391-.292.589-.113.236-.226.481-.335.731-.1.231-.208.467-.3.712a.749.749,0,0,0-.042.109c-.047.113-.094.226-.137.344l-.057.141-.057.141c-.024.061-.047.127-.071.189-.038.1-.071.193-.1.287a.8.8,0,0,0-.033.1c-.047.118-.09.24-.132.358l-.2.622c-.033.1-.066.2-.094.3-.1.34-.2.674-.283,1-.094.349-.189.7-.269,1.052-.08.335-.155.679-.231,1.028a2.414,2.414,0,0,1-.047.259c-.047.236-.094.495-.137.75l-.056.354c-.042.25-.075.457-.1.674l-.061.41c-.024.2-.047.415-.066.627l-.01.052c-.014.127-.028.245-.038.368-.024.25-.042.476-.061.7l-.028.4c-.009.24-.024.486-.033.735l-.014.349c-.014.363-.019.726-.019,1.089,0,.816.028,1.613.085,2.438h0l.038.434v0c.033.387.071.773.118,1.155v0c.009.09.019.184.033.278.019.165.042.335.066.5.009.066.019.127.028.193.033.231.071.457.108.684s.08.462.123.688c.094.514.207,1.019.325,1.514.042.174.085.344.127.514l.024.094.014.057v0a.817.817,0,0,0,.033.113c.009.038.019.075.028.108.071.259.146.514.217.764a.886.886,0,0,1,.033.1l.109.354c.264.839.556,1.655.868,2.414.033.071.066.151.094.231a27.425,27.425,0,0,0,2.277,4.319l.047.08a.288.288,0,0,1,.038.057,23.025,23.025,0,0,0,3.15,3.847c.354.354.726.693,1.136,1.038A16.293,16.293,0,0,0,154.866,231c.108.014.207.028.307.038.207.014.424.033.641.042h.01c.061,0,.151,0,.236.009l.089.009h.42c.108,0,.226,0,.339,0a1.674,1.674,0,0,0,.179-.01h.052a.92.92,0,0,1,.108,0l.519-.038c.16-.01.321-.028.476-.052.217-.023.41-.042.608-.076.259-.042.523-.094.783-.151.32-.071.632-.151.938-.245a10.957,10.957,0,0,0,1.424-.481,16.1,16.1,0,0,0,1.617-.75c.471-.25.943-.528,1.448-.863.382-.255.707-.49,1-.712.189-.146.372-.292.552-.443.146-.113.273-.226.405-.339.259-.226.519-.467.778-.712a24.024,24.024,0,0,0,4.333-5.776l.156-.288c.212-.391.391-.759.556-1.108l.193-.41c.151-.33.3-.679.457-1.066.217-.538.405-1.037.575-1.523.08-.226.155-.453.231-.684v0l.033-.113c.042-.127.136-.417.178-.554l-.4.092Z" transform="translate(-120.221 -158.49)" fill="#d81525"/>
          <path id="Path_13649" data-name="Path 13649" d="M183.416,421.656h.014a33.777,33.777,0,0,0,10.434-.872,28.485,28.485,0,0,1-5.512-2.914c-.811.066-1.65.1-2.527.1-1.061,0-2.15-.057-3.239-.165a.834.834,0,0,1-.108-.01h-.009c.028.156.052.307.089.458.052.292.113.579.175.867a25.767,25.767,0,0,0,.684,2.537" transform="translate(-159.894 -366.104)" fill="#d81525"/>
          <path id="Path_13650" data-name="Path 13650" d="M417.756,323.6l.146-.028.141-.028c.274-.042.537-.094.806-.156s.556-.118.83-.188a.576.576,0,0,0,.085-.024c.3-.071.594-.151.891-.236.047-.009.094-.024.142-.038.264-.075.523-.156.782-.24l.043-.014c.057-.811.085-1.6.085-2.4a33.73,33.73,0,0,0-.957-8.053l0,0c-.174.439-.363.868-.551,1.287-.066.141-.128.283-.194.42-.2.434-.415.858-.632,1.268-.08.165-.17.325-.264.486s-.179.316-.264.467c-.179.306-.358.6-.542.886-.071.113-.146.231-.222.344s-.146.231-.226.344c0,.009-.009.014-.014.024s0,.037,0,.056c.061.806.094,1.613.094,2.466a31.931,31.931,0,0,1-.179,3.353Z" transform="translate(-366.071 -273.568)" fill="#d81525"/>
          <path id="Path_13651" data-name="Path 13651" d="M3.791,155.847c.009-.141.024-.273.038-.405a7.464,7.464,0,0,1,.1-.769c.014-.1.033-.222.061-.344a2.316,2.316,0,0,1,.066-.292,6.894,6.894,0,0,1,.207-.783c.028-.1.075-.25.127-.387.028-.1.085-.245.137-.382.075-.212.17-.434.269-.66.085-.189.174-.377.278-.571s.222-.419.344-.632c.071-.123.146-.241.222-.363.127-.212.283-.448.471-.707l.245-.335c.17-.222.335-.434.509-.637.255-.306.533-.613.83-.905.127-.132.269-.273.415-.41.071-.071.156-.146.236-.222l.127-.113q.163-.148.325-.283c.269-.231.542-.453.806-.651.132-.1.288-.222.453-.33a20.3,20.3,0,0,1,2.961-1.787c.127-.071.278-.142.424-.217.335-.16.688-.32,1.127-.5.142-.061.288-.123.434-.174.236-.1.476-.189.717-.278.141-.052.288-.1.434-.156h0c.226-.075.453-.151.684-.222.156-.052.33-.1.514-.16.316-.09.632-.179.957-.259.259-.071.528-.132.8-.193l.179-.047c.259-.052.519-.108.773-.156a2.617,2.617,0,0,1,.259-.047c.193-.038.387-.076.585-.108.245-.038.486-.071.726-.109.259-.033.519-.066.778-.09l.141-.014.335-.038c.189-.019.377-.038.566-.047s.4-.028.608-.042a.856.856,0,0,1,.16,0c.146-.014.3-.019.448-.024l.156-.009c.8-.028,1.561-.024,2.324,0l.556.028.471.028c.16.01.311.024.467.038l.057,0c.25.019.5.047.74.071l.066.009a.061.061,0,0,1,.028,0l.462.057c.156.019.306.042.457.066.306.042.613.094.91.146a27.661,27.661,0,0,1,5.186,1.429h0l.009,0,.156.056c.193.08.382.156.57.236.132.052.292.122.453.193s.3.132.443.2q.184.078.368.17c.2.1.4.2.585.3.085.042.2.1.316.165l.09.047c.2.108.4.221.589.335l.123.071.325.2c.226.141.453.288.674.438l.066.042.127.085.052.038c.038.028.075.052.113.08.255.174.519.368.764.566.278.212.575.457.872.721.061.057.137.123.207.189l.094.09c.33.306.608.58.858.844l.052.052h0c.118.1.236.207.354.316.1.094.2.189.3.288l.3.3.3.311c.094.1.193.208.288.316.189.217.377.439.556.665s.363.457.537.7a21.984,21.984,0,0,1,2.141,3.607c.042-.141.085-.283.127-.429.113-.391.217-.787.311-1.2.047-.193.094-.391.137-.594v-.217L49.87,152l0,0c.042-.2.075-.4.108-.585.014-.085.028-.165.042-.245.042-.24.08-.472.113-.7.009-.066.019-.132.028-.2.024-.16.042-.321.061-.481v0a17.554,17.554,0,0,0-1.254-2.1,18.847,18.847,0,0,0-1.712-2.122c-.123-.123-.212-.222-.306-.316-.137-.137-.264-.269-.391-.4-.222-.222-.476-.457-.8-.74-.137-.123-.269-.236-.405-.349-.118-.1-.212-.179-.3-.255l-.123-.1a.965.965,0,0,1-.08-.061c-.16-.128-.321-.25-.486-.373-.2-.151-.4-.3-.6-.443l-.085-.057-.132-.09c-.5-.349-1.009-.674-1.537-.985a28.676,28.676,0,0,0-5.856-2.617l-.075-.024c-.085-.028-.17-.052-.255-.08-.575-.174-1.066-.316-1.528-.434a34.071,34.071,0,0,0-10.788-.952.08.08,0,0,0-.033,0c-.071,0-.141,0-.212.014l-.212.014c-.09,0-.179.014-.264.024l-.25.028c-.207.014-.377.033-.547.056-.363.042-.717.09-1.07.137-.269.042-.542.085-.811.132-.151.024-.269.047-.391.071l-.736.141-.141.028a.925.925,0,0,0-.123.024c-.014,0-.028,0-.042.009h0c-.109.023-.217.052-.321.075-.288.066-.57.137-.849.207-.236.061-.457.123-.679.189l-.571.16c-.08.024-.165.052-.25.08s-.179.052-.269.08v0h0c-.024,0-.042.014-.066.019l-.057.024a27.871,27.871,0,0,0-6.676,3.15l-.009,0-.009,0-.057.033c-.028.019-.057.038-.09.061-.137.08-.288.184-.434.287h0l-.047.033c-.156.108-.307.217-.457.33l-.028.019a.307.307,0,0,1-.052.033c-.151.113-.3.222-.438.335-.184.141-.358.283-.542.424l-1.91,1.759c-.085.09-.189.2-.292.311l-.113.123c-.085.09-.179.2-.264.3l-.042.047c-.028.028-.057.061-.085.094-.141.17-.269.325-.4.486s-.259.325-.382.49c-.1.123-.193.259-.288.391s-.2.273-.283.405-.184.278-.264.405c-.189.3-.335.552-.462.783-.071.118-.123.222-.174.316-.137.25-.259.49-.368.731-.071.146-.132.288-.2.438-.042.1-.08.184-.113.269l-.132.33c-.1.269-.2.552-.292.834-.057.156-.094.292-.132.429a14.122,14.122,0,0,0-.373,1.622c-.024.127-.042.245-.061.368-.028.222-.057.448-.08.679-.014.123-.024.236-.033.349-.009.184-.019.372-.024.561,0,.165-.009.325-.009.486s0,.321.009.481c0,.193.014.382.024.566.009.113.019.226.033.34.024.24.052.467.08.693.024.141.038.25.057.358a15.214,15.214,0,0,0,.787,2.852c.042.118.09.236.141.349a11.5,11.5,0,0,0,.486,1.065c.052.113.1.207.146.292l.033.066c.118.226.245.453.377.679.179.3.382.618.646,1.014l.231.325c.1.146.217.293.33.443.09.123.179.24.273.349.137.17.264.33.4.481l.179.212c.028.033.057.066.09.1l.094.1c.066.071.137.146.2.226l.274.283c.193.2.391.4.594.594s.415.382.627.57c.179.156.363.311.547.467.061.047.132.108.2.174.17.132.368.292.575.443.222.17.448.335.674.495l.118.085a25.769,25.769,0,0,0,2.895,1.749l.127.066c.566.288,1.132.556,1.683.792l.127.057c.382.165.778.321,1.184.476l.547.2c.274.094.542.189.825.278l.174.061c.193.061.382.118.58.179-.075-.33-.141-.66-.2-1-.047-.236-.09-.476-.127-.712-.014-.08-.028-.16-.038-.241s-.024-.141-.033-.212a.238.238,0,0,1-.01-.057c-.014-.085-.028-.17-.038-.259-.019-.108-.033-.217-.047-.33,0-.01,0-.024,0-.033s0-.033,0-.047c-.014-.085-.019-.17-.033-.259,0-.047-.01-.09-.014-.137-.019-.141-.033-.287-.052-.434s-.028-.283-.042-.429h0a24.316,24.316,0,0,1-4.545-2.207c-.189-.118-.377-.24-.561-.368-.165-.109-.349-.236-.528-.363-.486-.349-.985-.745-1.48-1.174a16.91,16.91,0,0,1-1.825-1.872c-.127-.155-.25-.306-.368-.457-.236-.311-.443-.608-.632-.9a2.678,2.678,0,0,1-.156-.241c-.09-.137-.17-.273-.25-.415-.094-.16-.189-.335-.283-.509l-.047-.094c-.066-.137-.137-.288-.207-.439a.831.831,0,0,1-.047-.108c-.061-.123-.127-.283-.189-.443-.014-.033-.042-.1-.066-.165-.033-.085-.071-.189-.113-.3l-.236-.255.09-.189c-.028-.1-.061-.2-.09-.3-.042-.146-.085-.311-.123-.471-.033-.132-.061-.288-.09-.439l-.071-.382c-.024-.165-.047-.335-.066-.514-.009-.09-.019-.208-.028-.321s-.019-.2-.024-.3c-.009-.207-.014-.4-.014-.594,0-.151,0-.3.009-.448,0-.061,0-.141.009-.226" transform="translate(0 -120.216)" fill="#d81525"/>
        </g>
        <path id="Path_13755" data-name="Path 13755" d="M473.633,25a4.393,4.393,0,1,1,4.393-4.392A4.4,4.4,0,0,1,473.633,25m0-8.3a3.912,3.912,0,1,0,3.913,3.912,3.917,3.917,0,0,0-3.913-3.912" transform="translate(-411.185 -14.21)" fill="#d81525"/>
        <path id="Path_13756" data-name="Path 13756" d="M493.572,37.759l-.792-1.358a1.416,1.416,0,0,1-.165.006h-1.036v1.351H490.7v-4.59h1.915a2.061,2.061,0,0,1,1.377.413,1.45,1.45,0,0,1,.487,1.167,1.721,1.721,0,0,1-.234.917,1.42,1.42,0,0,1-.679.572l1.01,1.521Zm-1.993-2.125h1.036a1.166,1.166,0,0,0,.76-.216.781.781,0,0,0,.263-.644.756.756,0,0,0-.263-.629,1.194,1.194,0,0,0-.76-.21h-1.036Z" transform="translate(-429.989 -29.064)" fill="#d81525"/>
      </g>
    </g>
    <text id="RCDP" transform="translate(98.439 74.265)" fill="#d81525" font-size="46" font-family="Inter-Bold, Inter" font-weight="700" letter-spacing="-0.035em"><tspan x="0" y="0">RCDP</tspan></text>
  </g>
</svg>
