<svg xmlns="http://www.w3.org/2000/svg" width="169" height="66.129" viewBox="0 0 169 66.129">
  <g id="Group_12112" data-name="Group 12112" transform="translate(350.156 -3057.829)">
    <g id="Group_12109" data-name="Group 12109" transform="translate(-272.015 3059.066)">
      <path id="Path_13717" data-name="Path 13717" d="M677.642,31.674l-1.506-3.06h-1.78v3.06h-3.368V20.326h5.294a5.356,5.356,0,0,1,3.537,1.052,3.675,3.675,0,0,1,1.255,2.979,4.476,4.476,0,0,1-.494,2.161,3.67,3.67,0,0,1-1.416,1.45l2.3,3.706Zm-3.286-5.65h1.926a1.6,1.6,0,0,0,1.174-.4,1.562,1.562,0,0,0,.411-1.165,1.512,1.512,0,0,0-.411-1.141,1.63,1.63,0,0,0-1.174-.4h-1.926Z" transform="translate(-670.34 -18.675)" fill="#f5f2ec"/>
      <path id="Path_13718" data-name="Path 13718" d="M747.649,36.638a4.928,4.928,0,0,1,1.213,3.521c0,.228,0,.4-.016.5H742.92a1.879,1.879,0,0,0,.641.971,1.721,1.721,0,0,0,1.075.339,2.852,2.852,0,0,0,1.943-.842l1.7,1.669a4.517,4.517,0,0,1-1.692,1.181,5.882,5.882,0,0,1-2.227.4,5.379,5.379,0,0,1-2.525-.558,3.946,3.946,0,0,1-1.642-1.569,4.685,4.685,0,0,1-.576-2.355,4.769,4.769,0,0,1,.583-2.389,4.073,4.073,0,0,1,1.635-1.594,5.049,5.049,0,0,1,2.428-.567,4.43,4.43,0,0,1,3.385,1.287m-2.38,1.353a1.242,1.242,0,0,0-.971-.422,1.217,1.217,0,0,0-.94.406,2.143,2.143,0,0,0-.5,1.084h2.768a1.5,1.5,0,0,0-.356-1.068" transform="translate(-727.882 -31.273)" fill="#f5f2ec"/>
      <path id="Path_13719" data-name="Path 13719" d="M809.924,35.466V43.51a3.8,3.8,0,0,1-.607,2.136,3.875,3.875,0,0,1-1.7,1.416,6.083,6.083,0,0,1-2.534.495,7.7,7.7,0,0,1-2.233-.323,7.059,7.059,0,0,1-1.83-.826l1.084-2.2a4.815,4.815,0,0,0,1.3.6,4.953,4.953,0,0,0,1.409.21,2.214,2.214,0,0,0,1.375-.382,1.222,1.222,0,0,0,.5-1.028v-.89a2.911,2.911,0,0,1-2.365,1.052,3.5,3.5,0,0,1-1.9-.526,3.591,3.591,0,0,1-1.31-1.5,5.006,5.006,0,0,1-.478-2.233,4.918,4.918,0,0,1,.46-2.177,3.505,3.505,0,0,1,1.287-1.466,3.462,3.462,0,0,1,1.879-.519,2.991,2.991,0,0,1,2.428,1.071v-.955Zm-3.652,5.454a1.993,1.993,0,0,0,.413-1.31,2.048,2.048,0,0,0-.413-1.344,1.349,1.349,0,0,0-1.093-.5,1.321,1.321,0,0,0-1.075.51,2.058,2.058,0,0,0-.413,1.337,1.989,1.989,0,0,0,.413,1.31,1.326,1.326,0,0,0,1.075.5,1.346,1.346,0,0,0,1.093-.5" transform="translate(-779.037 -31.273)" fill="#f5f2ec"/>
      <path id="Path_13720" data-name="Path 13720" d="M872.47,10.578a1.651,1.651,0,0,1,.47,1.215,1.611,1.611,0,0,1-1.685,1.682,1.664,1.664,0,0,1-1.221-.47,1.627,1.627,0,0,1-.479-1.213,1.632,1.632,0,0,1,.479-1.215,1.664,1.664,0,0,1,1.221-.47,1.641,1.641,0,0,1,1.215.47M869.636,14.3h3.27v8.805h-3.27Z" transform="translate(-836.825 -10.108)" fill="#f5f2ec"/>
      <path id="Path_13721" data-name="Path 13721" d="M905.786,35.911a4.1,4.1,0,0,1,1.707,1.578,4.942,4.942,0,0,1,0,4.749,4.072,4.072,0,0,1-1.707,1.588,6.236,6.236,0,0,1-5.156,0,4.057,4.057,0,0,1-1.716-1.588,4.944,4.944,0,0,1,0-4.749,4.08,4.08,0,0,1,1.716-1.578,6.212,6.212,0,0,1,5.156,0m-3.74,2.572a2.2,2.2,0,0,0-.438,1.418,2.174,2.174,0,0,0,.438,1.423,1.427,1.427,0,0,0,1.165.535,1.412,1.412,0,0,0,1.149-.535A2.172,2.172,0,0,0,904.8,39.9a2.2,2.2,0,0,0-.438-1.418,1.405,1.405,0,0,0-1.149-.542,1.42,1.42,0,0,0-1.165.542" transform="translate(-860.932 -31.273)" fill="#f5f2ec"/>
      <path id="Path_13722" data-name="Path 13722" d="M974.666,35.666a2.836,2.836,0,0,1,1.118,1.174,3.764,3.764,0,0,1,.395,1.764v5.585h-3.27V39.544a1.494,1.494,0,0,0-.348-1.036,1.17,1.17,0,0,0-.915-.388,1.339,1.339,0,0,0-1.052.486,1.875,1.875,0,0,0-.388,1.231v4.354h-3.27V35.384h3.27v1.359a3.2,3.2,0,0,1,1.174-1.109,3.353,3.353,0,0,1,1.626-.382,3.279,3.279,0,0,1,1.66.413" transform="translate(-918.472 -31.19)" fill="#f5f2ec"/>
      <path id="Path_13723" data-name="Path 13723" d="M1038.473,36.105a2.889,2.889,0,0,1,1.043,2.371V44.19h-3.2v-.971a2.655,2.655,0,0,1-1.062.824,3.648,3.648,0,0,1-1.513.294,3.044,3.044,0,0,1-2.184-.754,2.64,2.64,0,0,1-.8-2.014,2.361,2.361,0,0,1,.868-1.967,4.069,4.069,0,0,1,2.533-.7h2.153v-.032a1.031,1.031,0,0,0-.389-.858,1.791,1.791,0,0,0-1.134-.307,5.711,5.711,0,0,0-1.238.16,8.2,8.2,0,0,0-1.416.47l-.811-2.168a11.286,11.286,0,0,1,4.241-.908,4.481,4.481,0,0,1,2.907.851m-2.745,5.851a1.415,1.415,0,0,0,.583-.664V40.5h-1.488q-.99,0-.99.824a.811.811,0,0,0,.26.648,1.069,1.069,0,0,0,.73.226,1.742,1.742,0,0,0,.9-.242" transform="translate(-971.983 -31.191)" fill="#f5f2ec"/>
      <rect id="Rectangle_1413" data-name="Rectangle 1413" width="3.27" height="12.012" transform="translate(69.346 0.987)" fill="#f5f2ec"/>
      <path id="Path_13724" data-name="Path 13724" d="M1136.974,35.666a2.831,2.831,0,0,1,1.118,1.174,3.767,3.767,0,0,1,.4,1.764v5.585h-3.27V39.544a1.5,1.5,0,0,0-.348-1.036,1.168,1.168,0,0,0-.915-.388,1.34,1.34,0,0,0-1.053.486,1.884,1.884,0,0,0-.388,1.231v4.354h-3.27V35.384h3.27v1.359a3.2,3.2,0,0,1,1.175-1.109,3.355,3.355,0,0,1,1.627-.382,3.279,3.279,0,0,1,1.659.413" transform="translate(-1054.557 -31.19)" fill="#f5f2ec"/>
      <path id="Path_13725" data-name="Path 13725" d="M1199.588,10.578a1.652,1.652,0,0,1,.47,1.215,1.61,1.61,0,0,1-1.684,1.682,1.663,1.663,0,0,1-1.222-.47,1.778,1.778,0,0,1,0-2.428,1.663,1.663,0,0,1,1.222-.47,1.642,1.642,0,0,1,1.215.47m-2.834,3.724h3.271v8.805h-3.271Z" transform="translate(-1111.091 -10.108)" fill="#f5f2ec"/>
      <path id="Path_13726" data-name="Path 13726" d="M674.561,122.431a2.921,2.921,0,0,0-1.432-.413,2.511,2.511,0,0,0-1.375.388,2.723,2.723,0,0,0-.971,1.077,3.53,3.53,0,0,0,0,3.092,2.772,2.772,0,0,0,.971,1.084,2.48,2.48,0,0,0,1.375.4,3.207,3.207,0,0,0,1.384-.357,4.5,4.5,0,0,0,1.319-.971l1.942,2.073a6.909,6.909,0,0,1-2.224,1.6,6.205,6.205,0,0,1-5.65-.169,5.566,5.566,0,0,1-2.145-2.13,6.022,6.022,0,0,1-.777-3.042,5.736,5.736,0,0,1,.793-2.988,5.651,5.651,0,0,1,2.186-2.1,6.521,6.521,0,0,1,5.682-.21,6.221,6.221,0,0,1,2.136,1.472l-1.942,2.315a4.068,4.068,0,0,0-1.271-1.125" transform="translate(-666.978 -101.589)" fill="#f5f2ec"/>
      <path id="Path_13727" data-name="Path 13727" d="M743.037,136.829a4.928,4.928,0,0,1,1.213,3.521c0,.228,0,.4-.015.5h-5.927a1.886,1.886,0,0,0,.642.971,1.721,1.721,0,0,0,1.075.339,2.848,2.848,0,0,0,1.942-.842l1.7,1.669a4.511,4.511,0,0,1-1.691,1.181,5.883,5.883,0,0,1-2.227.4,5.38,5.38,0,0,1-2.525-.558,3.943,3.943,0,0,1-1.642-1.569,4.685,4.685,0,0,1-.576-2.355,4.766,4.766,0,0,1,.582-2.389,4.072,4.072,0,0,1,1.635-1.594,5.049,5.049,0,0,1,2.428-.567,4.429,4.429,0,0,1,3.385,1.287m-2.38,1.353a1.241,1.241,0,0,0-.971-.422,1.218,1.218,0,0,0-.939.407,2.142,2.142,0,0,0-.5,1.084h2.769a1.5,1.5,0,0,0-.357-1.068" transform="translate(-724.016 -115.276)" fill="#f5f2ec"/>
      <path id="Path_13728" data-name="Path 13728" d="M807.956,135.859a2.833,2.833,0,0,1,1.118,1.174,3.763,3.763,0,0,1,.4,1.764v5.585H806.2v-4.645a1.5,1.5,0,0,0-.348-1.037,1.168,1.168,0,0,0-.914-.388,1.339,1.339,0,0,0-1.053.485,1.878,1.878,0,0,0-.388,1.231v4.354h-3.27v-8.805h3.27v1.359a3.2,3.2,0,0,1,1.174-1.109,3.352,3.352,0,0,1,1.627-.382,3.277,3.277,0,0,1,1.659.413" transform="translate(-778.698 -115.195)" fill="#f5f2ec"/>
      <path id="Path_13729" data-name="Path 13729" d="M870.149,134.3a4.408,4.408,0,0,1-1.142.411,5.946,5.946,0,0,1-1.351.156,3.175,3.175,0,0,1-2.249-.779,2.738,2.738,0,0,1-.842-2.121V128.46H863.35v-2.089h1.215v-2.444h3.254v2.444h2.168v2.089h-2.168v3.01a.894.894,0,0,0,.194.632.71.71,0,0,0,.549.21,3.334,3.334,0,0,0,1-.26Z" transform="translate(-831.622 -105.538)" fill="#f5f2ec"/>
      <path id="Path_13730" data-name="Path 13730" d="M916.742,136.3a2.886,2.886,0,0,1,1.043,2.371v5.713h-3.2v-.971a2.649,2.649,0,0,1-1.061.824,3.644,3.644,0,0,1-1.513.294,3.044,3.044,0,0,1-2.184-.754,2.638,2.638,0,0,1-.795-2.015,2.363,2.363,0,0,1,.867-1.967,4.071,4.071,0,0,1,2.534-.7h2.152v-.032a1.03,1.03,0,0,0-.389-.858,1.793,1.793,0,0,0-1.133-.307,5.7,5.7,0,0,0-1.238.16,8.176,8.176,0,0,0-1.416.47l-.811-2.168a11.281,11.281,0,0,1,4.241-.908,4.482,4.482,0,0,1,2.907.851M914,142.148a1.408,1.408,0,0,0,.582-.664v-.793h-1.488q-.988,0-.989.824a.809.809,0,0,0,.26.648,1.068,1.068,0,0,0,.729.226,1.744,1.744,0,0,0,.906-.242" transform="translate(-869.92 -115.195)" fill="#f5f2ec"/>
      <path id="Path_13731" data-name="Path 13731" d="M978.4,135.843a3.2,3.2,0,0,1,1.594-.4v2.947a3.589,3.589,0,0,0-.567-.032,2.449,2.449,0,0,0-1.61.485,1.62,1.62,0,0,0-.592,1.326v4.209h-3.271v-8.805h3.271v1.391a3.339,3.339,0,0,1,1.174-1.125" transform="translate(-924.356 -115.195)" fill="#f5f2ec"/>
      <path id="Path_13732" data-name="Path 13732" d="M1036.526,136.255h7.9V138.2l-3.949,4.419h4.11v2.444h-8.223v-1.926l3.95-4.42h-3.788Z" transform="translate(-976.683 -115.874)" fill="#f5f2ec"/>
      <path id="Path_13733" data-name="Path 13733" d="M1099.277,136.3a2.887,2.887,0,0,1,1.043,2.371v5.713h-3.2v-.971a2.649,2.649,0,0,1-1.061.824,3.646,3.646,0,0,1-1.514.294,3.043,3.043,0,0,1-2.183-.754,2.638,2.638,0,0,1-.795-2.015,2.365,2.365,0,0,1,.867-1.967,4.07,4.07,0,0,1,2.534-.7h2.152v-.032a1.03,1.03,0,0,0-.388-.858,1.8,1.8,0,0,0-1.134-.307,5.7,5.7,0,0,0-1.237.16,8.188,8.188,0,0,0-1.416.47l-.81-2.168a11.28,11.28,0,0,1,4.241-.908,4.482,4.482,0,0,1,2.907.851m-2.745,5.851a1.4,1.4,0,0,0,.583-.664v-.793h-1.488q-.989,0-.989.824a.812.812,0,0,0,.259.648,1.072,1.072,0,0,0,.73.226,1.736,1.736,0,0,0,.9-.242" transform="translate(-1022.964 -115.195)" fill="#f5f2ec"/>
      <path id="Path_13734" data-name="Path 13734" d="M679.156,221.413A5.142,5.142,0,0,1,681.3,223.4a6.138,6.138,0,0,1-.016,5.949,5.208,5.208,0,0,1-2.186,2,7.184,7.184,0,0,1-3.254.7H670.99V220.708h4.968a6.945,6.945,0,0,1,3.2.7m-1.237,7.179a3.232,3.232,0,0,0,.711-2.186,3.147,3.147,0,0,0-.761-2.2,2.53,2.53,0,0,0-1.973-.842h-1.538v6.055h1.7a2.342,2.342,0,0,0,1.863-.827" transform="translate(-670.342 -186.682)" fill="#f5f2ec"/>
      <path id="Path_13735" data-name="Path 13735" d="M749.943,210.96a1.721,1.721,0,0,1-2.437,2.427,1.778,1.778,0,0,1,0-2.427,1.666,1.666,0,0,1,1.222-.47,1.642,1.642,0,0,1,1.215.47m-2.834,3.724h3.27v8.805h-3.27Z" transform="translate(-734.094 -178.115)" fill="#f5f2ec"/>
      <path id="Path_13736" data-name="Path 13736" d="M787.717,236.049a2.836,2.836,0,0,1,1.118,1.174,3.76,3.76,0,0,1,.4,1.764v5.585h-3.27v-4.645a1.5,1.5,0,0,0-.347-1.037,1.168,1.168,0,0,0-.915-.388,1.339,1.339,0,0,0-1.052.486,1.878,1.878,0,0,0-.388,1.231v4.354h-3.27v-8.805h3.27v1.359a3.2,3.2,0,0,1,1.174-1.109,3.354,3.354,0,0,1,1.626-.381,3.282,3.282,0,0,1,1.66.413" transform="translate(-761.728 -199.198)" fill="#f5f2ec"/>
      <path id="Path_13737" data-name="Path 13737" d="M851.521,236.487a2.885,2.885,0,0,1,1.044,2.371v5.713h-3.2V243.6a2.651,2.651,0,0,1-1.061.824,3.647,3.647,0,0,1-1.513.294,3.042,3.042,0,0,1-2.183-.754,2.637,2.637,0,0,1-.8-2.014,2.362,2.362,0,0,1,.868-1.967,4.07,4.07,0,0,1,2.533-.7h2.153v-.031a1.03,1.03,0,0,0-.389-.858,1.794,1.794,0,0,0-1.134-.307,5.7,5.7,0,0,0-1.237.16,8.156,8.156,0,0,0-1.416.47l-.811-2.168a11.286,11.286,0,0,1,4.242-.908,4.479,4.479,0,0,1,2.906.851m-2.744,5.851a1.41,1.41,0,0,0,.583-.664v-.793h-1.488q-.989,0-.989.824a.81.81,0,0,0,.259.648,1.071,1.071,0,0,0,.73.226,1.74,1.74,0,0,0,.906-.242" transform="translate(-815.237 -199.198)" fill="#f5f2ec"/>
      <path id="Path_13738" data-name="Path 13738" d="M922.251,236.049a2.793,2.793,0,0,1,1.1,1.174,3.817,3.817,0,0,1,.389,1.764v5.585h-3.271v-4.645a1.545,1.545,0,0,0-.331-1.037,1.1,1.1,0,0,0-.883-.388,1.255,1.255,0,0,0-1,.486,1.918,1.918,0,0,0-.373,1.231v4.354h-3.27v-4.645a1.543,1.543,0,0,0-.332-1.037,1.1,1.1,0,0,0-.881-.388,1.277,1.277,0,0,0-1.012.486,1.889,1.889,0,0,0-.382,1.231v4.354h-3.27v-8.805H912v1.344a3.13,3.13,0,0,1,1.15-1.093,3.245,3.245,0,0,1,1.588-.381,3.161,3.161,0,0,1,1.78.5,2.935,2.935,0,0,1,1.117,1.409,3.325,3.325,0,0,1,4.614-1.5" transform="translate(-869.673 -199.198)" fill="#f5f2ec"/>
      <path id="Path_13739" data-name="Path 13739" d="M1014.748,210.96a1.72,1.72,0,0,1-2.437,2.427,1.777,1.777,0,0,1,0-2.427,1.664,1.664,0,0,1,1.221-.47,1.643,1.643,0,0,1,1.215.47m-2.834,3.724h3.27v8.805h-3.27Z" transform="translate(-956.115 -178.115)" fill="#f5f2ec"/>
      <path id="Path_13740" data-name="Path 13740" d="M1046.163,220.638a1.52,1.52,0,0,0-.818-.226,1.271,1.271,0,0,0-1.053.517,2.142,2.142,0,0,0-.406,1.36,2.241,2.241,0,0,0,.4,1.384,1.259,1.259,0,0,0,1.061.526,1.413,1.413,0,0,0,1.391-.971l2.541,1.278a3.64,3.64,0,0,1-1.577,1.685,5.127,5.127,0,0,1-2.534.6,5,5,0,0,1-2.412-.558,3.946,3.946,0,0,1-1.6-1.569,4.746,4.746,0,0,1-.568-2.355,4.8,4.8,0,0,1,.576-2.389,4.007,4.007,0,0,1,1.617-1.594,5.011,5.011,0,0,1,2.421-.567,4.865,4.865,0,0,1,2.437.6,3.991,3.991,0,0,1,1.626,1.7l-2.508,1.231a1.7,1.7,0,0,0-.589-.648m-.025-6.346h2.168l-1.78,2.543h-2.8l-1.781-2.543h2.17l1.018,1.118Z" transform="translate(-980.222 -181.303)" fill="#f5f2ec"/>
      <path id="Path_13741" data-name="Path 13741" d="M1107.133,228.61l-1.6-3.06-.663.7v2.365H1101.6V216.6h3.271v5.845l2.427-2.638h3.692l-3.222,3.4L1111,228.61Z" transform="translate(-1031.375 -183.236)" fill="#f5f2ec"/>
      <path id="Path_13742" data-name="Path 13742" d="M1173.6,236.447v8.805h-3.27v-1.312a3.089,3.089,0,0,1-1.14,1.086,3.233,3.233,0,0,1-1.563.373,3.152,3.152,0,0,1-1.627-.413,2.8,2.8,0,0,1-1.093-1.174,3.856,3.856,0,0,1-.388-1.779v-5.585h3.27v4.661a1.524,1.524,0,0,0,.323,1.027,1.073,1.073,0,0,0,.858.382,1.241,1.241,0,0,0,1-.486,1.96,1.96,0,0,0,.364-1.231v-4.354Z" transform="translate(-1084.136 -199.878)" fill="#f5f2ec"/>
      <path id="Path_13743" data-name="Path 13743" d="M679.544,321.953a3.74,3.74,0,0,1,1.206,2.979,4.07,4.07,0,0,1-1.206,3.141,4.836,4.836,0,0,1-3.408,1.115l-1.78.016v3.044H670.99V320.9h5.146a5.028,5.028,0,0,1,3.408,1.052m-2.4,4.241a1.555,1.555,0,0,0,.413-1.165,1.506,1.506,0,0,0-.413-1.14,1.626,1.626,0,0,0-1.172-.4h-1.62V326.6h1.62a1.6,1.6,0,0,0,1.172-.4" transform="translate(-670.342 -270.687)" fill="#f5f2ec"/>
      <path id="Path_13744" data-name="Path 13744" d="M738.99,337.932a.952.952,0,0,0-.486.106.34.34,0,0,0-.179.314c0,.162.111.3.332.4a7.127,7.127,0,0,0,1.059.348,13.247,13.247,0,0,1,1.611.551,3.029,3.029,0,0,1,1.117.833,2.126,2.126,0,0,1,.479,1.432,2.512,2.512,0,0,1-1.062,2.129,4.608,4.608,0,0,1-2.809.786,7.762,7.762,0,0,1-2.224-.316,6.451,6.451,0,0,1-1.92-.93l1.005-2.057a7.373,7.373,0,0,0,1.642.811,4.872,4.872,0,0,0,1.546.273,1.132,1.132,0,0,0,.533-.1.325.325,0,0,0,.194-.3c0-.161-.1-.294-.314-.4a6.294,6.294,0,0,0-1.045-.348,12.169,12.169,0,0,1-1.57-.535,2.992,2.992,0,0,1-1.1-.827,2.106,2.106,0,0,1-.47-1.423,2.575,2.575,0,0,1,1.034-2.154,4.363,4.363,0,0,1,2.722-.793,7.622,7.622,0,0,1,3.868,1.068l-1.085,2.057a6.823,6.823,0,0,0-2.881-.924" transform="translate(-723.934 -283.121)" fill="#f5f2ec"/>
      <path id="Path_13745" data-name="Path 13745" d="M795.636,311.152a1.721,1.721,0,0,1-2.437,2.428,1.779,1.779,0,0,1,0-2.428,1.666,1.666,0,0,1,1.222-.47,1.642,1.642,0,0,1,1.215.47m-2.834,3.724h3.27v8.805H792.8Z" transform="translate(-772.405 -262.119)" fill="#f5f2ec"/>
      <path id="Path_13746" data-name="Path 13746" d="M834.551,320.781a3.385,3.385,0,0,1,.874,2.437V328.8h-3.27v-4.645a1.521,1.521,0,0,0-.338-1.046,1.184,1.184,0,0,0-.924-.379,1.337,1.337,0,0,0-1.052.485,1.864,1.864,0,0,0-.388,1.231V328.8h-3.271V316.79h3.271v4.566a3.2,3.2,0,0,1,1.174-1.109,3.353,3.353,0,0,1,1.626-.381,3.034,3.034,0,0,1,2.3.915" transform="translate(-800.459 -267.24)" fill="#f5f2ec"/>
      <path id="Path_13747" data-name="Path 13747" d="M896.525,311.152a1.721,1.721,0,0,1-2.437,2.428,1.777,1.777,0,0,1,0-2.428,1.665,1.665,0,0,1,1.222-.47,1.642,1.642,0,0,1,1.215.47m-2.834,3.724h3.27v8.805h-3.27Z" transform="translate(-856.993 -262.119)" fill="#f5f2ec"/>
      <path id="Path_13748" data-name="Path 13748" d="M915.357,324.41c.518,0,.777-.309.777-.923v-8.611h3.27v9.112a2.765,2.765,0,0,1-.889,2.17,3.476,3.476,0,0,1-2.4.793,5.806,5.806,0,0,1-2.073-.357l.632-2.281a3.69,3.69,0,0,0,.68.1m3.577-13.259a1.684,1.684,0,0,1-1.215,2.9,1.669,1.669,0,0,1-1.222-.47,1.785,1.785,0,0,1,0-2.428,1.669,1.669,0,0,1,1.222-.47,1.643,1.643,0,0,1,1.215.47" transform="translate(-874.127 -262.119)" fill="#f5f2ec"/>
      <path id="Path_13749" data-name="Path 13749" d="M962.839,336.679a2.887,2.887,0,0,1,1.044,2.371v5.714h-3.205v-.971a2.639,2.639,0,0,1-1.06.824,3.645,3.645,0,0,1-1.513.294,3.044,3.044,0,0,1-2.184-.754,2.637,2.637,0,0,1-.795-2.015,2.363,2.363,0,0,1,.867-1.967,4.072,4.072,0,0,1,2.534-.7h2.151v-.031a1.03,1.03,0,0,0-.387-.858,1.8,1.8,0,0,0-1.134-.307,5.7,5.7,0,0,0-1.237.161,8.172,8.172,0,0,0-1.416.469l-.81-2.168a11.283,11.283,0,0,1,4.241-.908,4.48,4.48,0,0,1,2.906.851m-2.743,5.851a1.407,1.407,0,0,0,.582-.664v-.793H959.19q-.989,0-.989.824a.811.811,0,0,0,.259.648,1.07,1.07,0,0,0,.73.226,1.742,1.742,0,0,0,.906-.242" transform="translate(-908.57 -283.202)" fill="#f5f2ec"/>
      <path id="Path_13750" data-name="Path 13750" d="M1022.044,334.687a4.421,4.421,0,0,1-1.143.411,5.937,5.937,0,0,1-1.35.156,3.175,3.175,0,0,1-2.249-.779,2.737,2.737,0,0,1-.843-2.121v-3.511h-1.214v-2.089h1.214V324.31h3.255v2.444h2.168v2.089h-2.168v3.01a.9.9,0,0,0,.194.633.707.707,0,0,0,.548.21,3.331,3.331,0,0,0,1-.26Z" transform="translate(-958.976 -273.545)" fill="#f5f2ec"/>
      <path id="Path_13751" data-name="Path 13751" d="M1069.476,336.225a3.189,3.189,0,0,1,1.594-.4v2.947a3.584,3.584,0,0,0-.567-.032,2.451,2.451,0,0,0-1.61.486,1.619,1.619,0,0,0-.592,1.326v4.209h-3.27v-8.805h3.27v1.391a3.34,3.34,0,0,1,1.175-1.125" transform="translate(-1000.719 -283.202)" fill="#f5f2ec"/>
      <path id="Path_13752" data-name="Path 13752" d="M1111.921,311.152a1.721,1.721,0,0,1-2.437,2.428,1.779,1.779,0,0,1,0-2.428,1.667,1.667,0,0,1,1.222-.47,1.641,1.641,0,0,1,1.215.47m-2.834,3.724h3.27v8.805h-3.27Z" transform="translate(-1037.589 -262.119)" fill="#f5f2ec"/>
      <path id="Path_13753" data-name="Path 13753" d="M1130.753,324.41c.517,0,.777-.309.777-.923v-8.611h3.269v9.112a2.764,2.764,0,0,1-.889,2.17,3.473,3.473,0,0,1-2.4.793,5.8,5.8,0,0,1-2.073-.357l.632-2.281a3.7,3.7,0,0,0,.68.1m3.577-13.259a1.684,1.684,0,0,1-1.215,2.9,1.668,1.668,0,0,1-1.222-.47,1.785,1.785,0,0,1,0-2.428,1.668,1.668,0,0,1,1.222-.47,1.644,1.644,0,0,1,1.215.47" transform="translate(-1054.723 -262.119)" fill="#f5f2ec"/>
      <path id="Path_13754" data-name="Path 13754" d="M1182.214,336.638v8.805h-3.27v-1.312a3.088,3.088,0,0,1-1.141,1.086,3.23,3.23,0,0,1-1.562.372,3.146,3.146,0,0,1-1.626-.413,2.8,2.8,0,0,1-1.093-1.174,3.855,3.855,0,0,1-.388-1.779v-5.585h3.27V341.3a1.528,1.528,0,0,0,.323,1.028,1.075,1.075,0,0,0,.858.382,1.243,1.243,0,0,0,1-.485,1.968,1.968,0,0,0,.364-1.231v-4.354Z" transform="translate(-1091.355 -283.882)" fill="#f5f2ec"/>
    </g>
    <g id="Group_12110" data-name="Group 12110" transform="translate(-350.156 3057.928)">
      <path id="Path_13644" data-name="Path 13644" d="M140.491,182.524l-.043.009c-.06.009-.12.017-.18.03l-.7.146-.141.034c-.232.051-.463.107-.69.167-.291.073-.562.146-.832.227-.15.043-.3.09-.446.137-.064.021-.129.039-.189.06-.052.733-.077,1.466-.077,2.187a30.621,30.621,0,0,0,.87,7.319.059.059,0,0,1,.009-.026c.09-.219.176-.433.27-.648s.18-.412.274-.617.176-.382.266-.566c.077-.159.159-.317.24-.472.06-.124.124-.244.189-.364.073-.141.146-.274.223-.411.064-.12.129-.236.2-.352.163-.287.33-.566.506-.836.077-.129.159-.257.244-.382s.15-.24.231-.356c-.06-.742-.09-1.492-.09-2.29a29.129,29.129,0,0,1,.159-3.053c-.1.017-.193.034-.292.056" transform="translate(-121.759 -161.939)" fill="#f5f2ec"/>
      <path id="Path_13645" data-name="Path 13645" d="M148.251,14.882l0,0s.013,0,.017,0c.03-.009.064-.013.1-.021l.129-.026c.013,0,.03,0,.047-.009l.313-.064.047-.009.15-.026.343-.064c.073-.013.141-.026.214-.034.236-.047.5-.086.763-.124.334-.051.665-.094,1-.133.167-.021.347-.039.523-.056.026,0,.051,0,.081-.009C154.43,7.585,159.215,3.43,164.548,3.43c5.317,0,10.1,4.137,12.55,10.83l.154.433c.094.283.189.566.274.853h0l.142.476c.047.163.094.33.137.5.081.317.159.639.232.96.034.163.073.326.1.493.1.493.189.99.262,1.492l0,0c.009.069.021.142.03.21v.009c.034.24.064.484.086.725a27.966,27.966,0,0,1,.18,3.169c0,.836-.034,1.638-.1,2.448l-.009.081c-.013.133-.03.279-.043.424v0l-.03.3c-.034.283-.073.562-.111.84-.069.5-.163,1.02-.287,1.646l-.043.193c-.043.189-.081.377-.129.562-.081.343-.172.682-.266,1.012-.039.133-.077.27-.12.4-.009.03-.017.064-.026.094v0l-.03.09,0,.017c0,.009,0,.017-.009.026-.021.064-.039.124-.056.18s-.047.137-.069.206c-.043.129-.086.257-.129.382-.077.227-.163.459-.249.69l-1.243,2.718a18.9,18.9,0,0,1-1.192,1.921c-.111.163-.214.309-.326.454a42.968,42.968,0,0,1-3.207,3.422,19.237,19.237,0,0,1-4.691,3.061,25.185,25.185,0,0,0,4.532.939c.154.017.313.034.476.047a19.908,19.908,0,0,0,3.134-2.718l.073-.094.056-.03a20.438,20.438,0,0,0,2.736-3.173l.077-.12a.314.314,0,0,1,.021-.026c.009-.013.021-.03.034-.047.081-.116.159-.232.232-.352.171-.249.33-.5.48-.755s.317-.523.459-.789c.193-.339.377-.682.544-1.038.111-.21.21-.42.3-.635s.189-.407.279-.617q.444-1.023.806-2.118c.051-.137.1-.283.146-.424l.021-.069.009-.026a30.177,30.177,0,0,0,1.381-9.141c0-.673-.026-1.359-.069-2.049l-.047-.557a30.028,30.028,0,0,0-.845-5.046l-.129-.5C178.487,6.178,171.91,0,164.548,0c-7.22,0-13.686,5.938-16.34,14.887v0c.013,0,.026,0,.039-.009Z" transform="translate(-131.534)" fill="#f5f2ec"/>
      <path id="Path_13646" data-name="Path 13646" d="M211.661,148.246q.064.3.116.592a1.068,1.068,0,0,1,.034.159q.083.437.154.875a.055.055,0,0,1,0,.026c.051.322.1.648.142.969s.082.656.116.982a.212.212,0,0,1,.009.051.193.193,0,0,0,0,.047c0,.026,0,.052.008.077,6.714,2.448,10.869,7.229,10.869,12.558s-4.155,10.114-10.869,12.563c-.129.047-.262.094-.394.142a26.415,26.415,0,0,1-4.986,1.183l-.42.056c-.137.017-.274.03-.416.043a28.829,28.829,0,0,1-5.359.069c-.077,0-.154-.009-.232-.017-.24-.013-.489-.043-.737-.069-.017,0-.039,0-.056-.008-.343-.039-.678-.086-1.012-.137a25.1,25.1,0,0,1-5.1-1.316c-.056-.017-.112-.039-.163-.06-.026-.009-.051-.021-.077-.03a19.064,19.064,0,0,1-7.336-4.819c-.1-.094-.206-.189-.309-.287s-.2-.2-.3-.3a18.835,18.835,0,0,1-3.567-5.218c-.056.18-.111.364-.163.553-.1.339-.184.686-.266,1.038-.03.124-.056.249-.081.377l-.039.167c-.021.1-.043.21-.064.317-.043.227-.086.455-.124.686-.039.214-.069.433-.1.652-.026.184-.051.369-.073.558v.009a.538.538,0,0,1,.047.086c0,.009.013.021.017.03.026.051.051.1.077.15s.056.1.081.15a.177.177,0,0,0,.021.039c0,.013.013.021.017.034a0,0,0,0,1,0,0,.256.256,0,0,1,.017.034s0,0,0,.009c.043.073.086.15.129.227s.09.154.137.227c.03.051.06.1.094.154.047.081.1.159.15.24l.026.039c.034.06.077.12.116.176s.064.09.094.137c.09.137.184.274.287.411.069.1.137.193.21.287a.015.015,0,0,0,0,.009c.12.159.244.317.369.472.244.3.506.6.78.9,0,0,.009,0,.009.008a.016.016,0,0,0,0,.009h0a20.489,20.489,0,0,0,3.361,2.894c.5.343,1.008.669,1.539.977a26.325,26.325,0,0,0,5.064,2.26l.2.064c.283.09.566.176.849.253q.527.155,1.067.283a30.84,30.84,0,0,0,9.266.81c.223-.013.442-.03.66-.047a29.884,29.884,0,0,0,5.046-.845c.223-.056.446-.116.665-.18,9.158-2.581,15.264-9.124,15.264-16.447,0-7.22-5.938-13.682-14.887-16.336" transform="translate(-160.518 -131.567)" fill="#f5f2ec"/>
      <path id="Path_13647" data-name="Path 13647" d="M322.371,139.8c-.039-.2-.081-.4-.133-.6s-.1-.394-.15-.592-.1-.39-.159-.587-.111-.39-.176-.579c-.008-.03-.017-.06-.026-.086s-.017-.06-.026-.086h0c-.776-.051-1.492-.077-2.182-.077a30.762,30.762,0,0,0-7.323.87q.36.141.708.3c.163.069.322.137.48.21.09.039.18.077.266.124.163.073.326.154.489.232a1.749,1.749,0,0,1,.18.09c.3.15.6.3.883.467.189.1.382.206.566.317.236.133.463.27.69.416.133.081.266.167.4.253s.249.159.373.244c.772-.06,1.543-.09,2.29-.09a29.352,29.352,0,0,1,3.044.163h0c-.017-.107-.039-.214-.06-.317a1.524,1.524,0,0,0-.038-.2c-.03-.159-.06-.313-.094-.472" transform="translate(-277.068 -121.759)" fill="#f5f2ec"/>
      <path id="Path_13648" data-name="Path 13648" d="M170.607,211.746a31.059,31.059,0,0,1-3.362.5v0a20.684,20.684,0,0,1-3.237,5.878l-.146.176c-.1.12-.21.249-.322.377s-.236.27-.356.4a16.321,16.321,0,0,1-1.454,1.364c-.056.047-.12.1-.184.15-.124.1-.266.206-.407.309l-.09.069a11.422,11.422,0,0,1-3.267,1.659q-.122.039-.257.077l-.352.094c-.1.026-.219.056-.343.081l-.364.073c-.2.039-.4.064-.6.086s-.4.043-.613.056h-.064c-.112.009-.266.013-.416.013H154.7c-.12,0-.24,0-.36-.009l-.073,0c-.274-.008-.549-.038-.78-.069l-.077-.013a.248.248,0,0,1-.06-.009l-.094-.013c-.017,0-.034,0-.047-.009l-.064-.009a11.365,11.365,0,0,1-1.329-.3,12.174,12.174,0,0,1-1.4-.532l-.335-.163c-.33-.167-.652-.347-.99-.557-.3-.189-.583-.382-.853-.583s-.536-.416-.815-.66a13.578,13.578,0,0,1-1.158-1.11c-.266-.287-.5-.553-.72-.819-.33-.412-.669-.866-.995-1.35-.309-.455-.609-.952-.9-1.479-.189-.352-.369-.7-.545-1.059-.244-.51-.484-1.059-.725-1.681-.056-.146-.111-.287-.163-.433l-.141-.4a26.724,26.724,0,0,1-1.183-4.978l0-.047c-.034-.253-.069-.515-.094-.776-.017-.172-.034-.347-.047-.523-.077-.832-.116-1.694-.116-2.564,0-.622.017-1.226.056-1.822h-.009l.039-.459.009-.133v-.017l0-.06,0-.03a.073.073,0,0,1,0-.03l.026-.27c.009-.081.017-.159.026-.236,0-.009,0-.013,0-.021,0-.056.013-.111.017-.167.03-.249.06-.5.094-.746s.073-.48.116-.72c.03-.2.069-.394.1-.587v0c.009-.047.017-.086.026-.129.047-.236.094-.467.146-.7a.081.081,0,0,0,.009-.034c.051-.231.107-.459.167-.686s.107-.424.167-.634c.137-.485.283-.961.446-1.428.09-.253.18-.5.274-.746.193-.506.4-1,.63-1.484q.064-.148.142-.3a18.189,18.189,0,0,1,4.048-5.561l.1-.1a18.265,18.265,0,0,1,5.707-4.082c-.2-.064-.407-.12-.617-.18q-.367-.1-.746-.193c-.257-.06-.519-.12-.78-.176s-.519-.1-.78-.15-.532-.09-.8-.129c-.206-.034-.412-.06-.617-.086a0,0,0,0,0,0,0,16.5,16.5,0,0,0-3.863,2.718,19.991,19.991,0,0,0-2.834,3.289v0l-.116.167c-.146.21-.287.424-.429.647q-.2.309-.386.63c-.094.15-.18.3-.262.45-.051.09-.1.184-.154.279-.111.193-.214.39-.313.587-.026.051-.051.1-.077.159-.094.176-.18.356-.266.536-.1.214-.206.437-.3.665-.094.21-.189.424-.274.647a.687.687,0,0,0-.039.1c-.043.1-.086.206-.124.313l-.051.129-.051.129c-.022.056-.043.116-.064.172-.034.09-.064.176-.094.261a.718.718,0,0,0-.03.09c-.043.107-.081.219-.12.326l-.184.566c-.03.09-.06.184-.086.274-.094.309-.18.613-.257.909-.086.317-.171.635-.244.956-.073.3-.141.617-.21.935a2.192,2.192,0,0,1-.043.236c-.043.214-.086.45-.124.682l-.051.322c-.039.227-.069.416-.09.613l-.056.373c-.022.184-.043.377-.06.57l-.009.047c-.013.116-.026.223-.034.335-.022.227-.039.433-.056.639l-.026.365c-.008.219-.021.442-.03.669l-.013.317c-.013.33-.017.66-.017.99,0,.742.026,1.466.077,2.217h0l.034.395v0c.03.352.064.7.107,1.05v0c.008.081.017.167.03.253.017.15.038.3.06.459.009.06.017.116.026.176.03.21.064.416.1.622s.073.42.111.626c.086.467.189.926.3,1.376.038.159.077.313.116.467l.021.086.013.051v0a.736.736,0,0,0,.03.1c.008.034.017.069.026.1.064.236.133.467.2.695a.792.792,0,0,1,.03.094l.1.322c.24.763.506,1.505.789,2.2.03.064.06.137.086.21a24.944,24.944,0,0,0,2.071,3.927l.043.073a.261.261,0,0,1,.034.051,20.938,20.938,0,0,0,2.864,3.5c.322.322.66.63,1.033.943a14.817,14.817,0,0,0,7.782,3.49c.1.013.189.026.279.034.189.013.386.03.583.039h.009c.056,0,.137,0,.214.009l.081.008h.382c.1,0,.206,0,.309,0a1.517,1.517,0,0,0,.163-.009h.047a.84.84,0,0,1,.1,0l.472-.034c.146-.009.291-.026.433-.047.2-.021.373-.039.553-.069.236-.038.476-.086.712-.137.291-.064.575-.137.853-.223a9.976,9.976,0,0,0,1.295-.437,14.646,14.646,0,0,0,1.471-.682c.429-.227.858-.48,1.316-.785.347-.232.643-.446.909-.647.172-.133.339-.266.5-.4.133-.1.249-.206.369-.309.236-.206.472-.425.707-.647a21.847,21.847,0,0,0,3.94-5.252l.142-.262c.193-.356.356-.69.506-1.008l.176-.373c.137-.3.274-.617.416-.969.2-.489.369-.943.523-1.385.073-.206.141-.412.21-.622v0l.03-.1c.039-.116.123-.38.162-.5l-.359.084Z" transform="translate(-121.759 -160.518)" fill="#f5f2ec"/>
      <path id="Path_13649" data-name="Path 13649" d="M183.33,421.306h.013a30.715,30.715,0,0,0,9.488-.793,25.9,25.9,0,0,1-5.012-2.65c-.737.06-1.5.09-2.3.09-.965,0-1.955-.051-2.946-.15a.747.747,0,0,1-.1-.009h-.009c.026.142.047.279.081.416.047.266.1.527.159.789a23.417,23.417,0,0,0,.622,2.307" transform="translate(-161.939 -370.789)" fill="#f5f2ec"/>
      <path id="Path_13650" data-name="Path 13650" d="M417.756,322.568l.133-.026.129-.026c.249-.039.489-.086.733-.142s.506-.107.755-.171a.525.525,0,0,0,.077-.022c.27-.064.54-.137.81-.214.043-.009.086-.022.129-.034.24-.069.476-.142.712-.219l.039-.013c.051-.738.077-1.458.077-2.187a30.668,30.668,0,0,0-.871-7.323l0,0c-.159.4-.33.789-.5,1.171-.06.129-.116.257-.176.382-.184.395-.377.78-.574,1.153-.073.15-.154.3-.24.442s-.163.287-.24.424c-.163.279-.326.544-.493.806-.064.1-.133.21-.2.313s-.133.21-.206.313c0,.009-.008.013-.013.021s0,.034,0,.051c.056.733.086,1.466.086,2.242a29.041,29.041,0,0,1-.163,3.049Z" transform="translate(-370.755 -277.068)" fill="#f5f2ec"/>
      <path id="Path_13651" data-name="Path 13651" d="M3.447,154.156c.009-.129.021-.249.034-.369a6.788,6.788,0,0,1,.09-.7c.013-.09.03-.2.056-.313a2.106,2.106,0,0,1,.06-.266,6.271,6.271,0,0,1,.189-.712c.026-.094.069-.227.116-.352.026-.094.077-.223.124-.347.069-.193.154-.394.244-.6.077-.172.159-.343.253-.519s.2-.382.313-.575c.064-.111.133-.219.2-.33.116-.193.257-.407.429-.643l.223-.3c.154-.2.3-.394.463-.579.232-.279.485-.557.755-.823.116-.12.244-.249.377-.373.064-.064.142-.133.214-.2l.116-.1q.148-.135.3-.257c.244-.21.493-.412.733-.592.12-.094.262-.2.412-.3a18.457,18.457,0,0,1,2.693-1.625c.116-.064.253-.129.386-.2.3-.146.626-.291,1.025-.459.129-.056.262-.111.394-.159.214-.09.433-.172.652-.253l.394-.142h0c.206-.069.412-.137.622-.2.142-.047.3-.094.467-.146.287-.082.574-.163.87-.236.236-.064.48-.12.729-.176l.163-.043c.236-.047.472-.1.7-.141a2.371,2.371,0,0,1,.236-.043c.176-.034.352-.069.532-.1.223-.034.442-.064.66-.1.236-.03.472-.06.707-.081l.129-.013.3-.034c.172-.017.343-.034.515-.043s.36-.026.553-.039a.776.776,0,0,1,.146,0c.133-.013.27-.017.407-.022l.141-.008c.725-.026,1.419-.021,2.114,0l.506.026.429.026c.146.009.283.022.424.034l.051,0c.227.017.45.043.673.064l.06.009a.055.055,0,0,1,.026,0l.42.051c.142.017.279.039.416.06.279.039.557.086.827.133a25.156,25.156,0,0,1,4.716,1.3h0l.009,0,.142.051c.176.073.347.142.519.215.12.047.266.111.412.176s.27.12.4.184q.167.071.334.154c.18.09.36.18.532.274.077.039.18.094.287.15l.081.043c.18.1.36.2.536.3l.111.064.3.18c.206.129.412.261.613.4l.06.039.116.077.047.034c.034.026.069.047.1.073.232.159.472.334.695.515.253.193.523.416.793.656.056.052.124.112.189.172l.086.081c.3.279.553.527.78.767l.047.047h0c.107.094.214.189.322.287.09.086.184.172.274.262l.27.27.27.283c.086.094.176.189.262.287.171.2.343.4.506.6s.33.416.489.635a19.991,19.991,0,0,1,1.947,3.28c.039-.129.077-.257.116-.39.1-.356.2-.716.283-1.089.043-.176.086-.356.124-.54v-.2l.047-.051,0,0c.039-.184.069-.36.1-.532.013-.077.026-.15.039-.223.039-.219.073-.429.1-.635.009-.06.017-.12.026-.184.021-.146.039-.292.056-.437v0a15.961,15.961,0,0,0-1.14-1.912,17.14,17.14,0,0,0-1.556-1.929c-.111-.111-.193-.2-.279-.287-.124-.124-.24-.244-.356-.36-.2-.2-.433-.416-.725-.673-.124-.112-.244-.214-.369-.317-.107-.094-.193-.163-.274-.232l-.111-.094a.865.865,0,0,1-.073-.056c-.146-.116-.292-.227-.442-.339-.18-.137-.36-.27-.545-.4l-.077-.051-.12-.081c-.45-.317-.917-.613-1.4-.9a26.078,26.078,0,0,0-5.325-2.38l-.069-.022c-.077-.026-.154-.047-.232-.073-.523-.159-.969-.287-1.389-.394a30.983,30.983,0,0,0-9.81-.866.073.073,0,0,0-.03,0c-.064,0-.129,0-.193.013l-.193.013c-.081,0-.163.013-.24.021l-.227.026c-.189.013-.343.03-.5.051-.33.039-.652.081-.973.124-.244.039-.493.077-.737.12-.137.021-.244.043-.356.064l-.669.129-.129.026a.842.842,0,0,0-.111.021c-.013,0-.026,0-.039.009h0c-.1.021-.2.047-.292.068-.261.06-.519.124-.772.189-.214.056-.416.112-.617.172l-.519.146c-.073.022-.15.047-.227.073s-.163.047-.244.073v0h0c-.021,0-.039.013-.06.017l-.051.021a25.348,25.348,0,0,0-6.071,2.864l-.009,0-.009,0-.051.03-.081.056c-.124.073-.262.167-.394.261h0l-.043.03c-.142.1-.279.2-.416.3l-.026.017a.281.281,0,0,1-.047.03c-.137.1-.27.2-.4.3-.167.129-.326.257-.493.386l-1.736,1.6c-.077.082-.172.18-.266.283l-.1.111c-.077.081-.163.18-.24.274l-.039.043c-.026.026-.051.056-.077.086-.129.154-.244.3-.36.442s-.236.3-.347.446c-.09.111-.176.236-.261.356s-.18.249-.257.369-.167.253-.24.369c-.171.274-.3.5-.42.712-.064.107-.111.2-.159.287-.124.227-.236.446-.334.665-.064.133-.12.262-.18.4-.039.094-.073.167-.1.244l-.12.3c-.094.244-.184.5-.266.759-.052.142-.086.266-.12.39a12.842,12.842,0,0,0-.339,1.475c-.021.116-.039.223-.056.334-.026.2-.051.407-.073.617-.013.112-.021.214-.03.317-.009.167-.017.339-.021.51,0,.15-.009.3-.009.442s0,.291.009.437c0,.176.013.347.021.515.009.1.017.206.03.309.021.219.047.424.073.63.021.129.034.227.052.326A13.836,13.836,0,0,0,.9,159.58c.039.107.081.214.129.317a10.451,10.451,0,0,0,.442.969c.047.1.09.189.133.266l.03.06c.107.206.223.412.343.617.163.27.347.562.587.922l.21.3c.094.133.2.266.3.4.081.111.163.219.249.317.124.154.24.3.36.437l.163.193c.026.03.051.06.081.09l.086.094c.06.064.124.133.184.206l.249.257c.176.184.356.36.54.54s.377.347.57.519c.163.142.33.283.5.425.056.043.12.1.184.159.154.12.334.266.523.4.2.154.407.3.613.45l.107.077a23.437,23.437,0,0,0,2.633,1.591l.116.06c.514.262,1.029.506,1.531.72l.116.051c.347.15.707.292,1.076.433l.5.184c.249.086.493.172.75.253l.159.056c.176.056.347.107.527.163-.069-.3-.129-.6-.184-.909-.043-.214-.081-.433-.116-.647-.013-.073-.026-.146-.034-.219s-.021-.129-.03-.193a.217.217,0,0,1-.009-.052c-.013-.077-.026-.154-.034-.236-.017-.1-.03-.2-.043-.3,0-.009,0-.021,0-.03s0-.03,0-.043c-.013-.077-.017-.154-.03-.236,0-.043-.009-.082-.013-.125-.017-.129-.03-.261-.047-.394s-.026-.257-.039-.39h0a22.114,22.114,0,0,1-4.133-2.007c-.172-.107-.343-.219-.51-.334-.15-.1-.317-.214-.48-.33-.442-.317-.9-.677-1.346-1.068a15.382,15.382,0,0,1-1.659-1.7c-.116-.141-.227-.279-.334-.416-.214-.283-.4-.553-.575-.819a2.445,2.445,0,0,1-.141-.219c-.081-.124-.154-.249-.227-.377-.086-.146-.172-.3-.257-.463l-.043-.086c-.06-.124-.124-.262-.189-.4a.761.761,0,0,1-.043-.1c-.056-.111-.116-.257-.171-.4-.013-.03-.039-.09-.06-.15-.03-.077-.064-.172-.1-.275l-.214-.232.081-.171c-.026-.09-.056-.184-.081-.274-.039-.133-.077-.283-.111-.429-.03-.12-.056-.262-.081-.4l-.064-.347c-.021-.15-.043-.3-.06-.467-.009-.081-.017-.189-.026-.292s-.017-.18-.021-.27c-.009-.189-.013-.36-.013-.54,0-.137,0-.27.009-.407,0-.056,0-.129.009-.206" transform="translate(0 -121.755)" fill="#f5f2ec"/>
      <path id="Path_13755" data-name="Path 13755" d="M473.234,24.206a3.994,3.994,0,1,1,3.995-3.994,4,4,0,0,1-3.995,3.994m0-7.552a3.558,3.558,0,1,0,3.558,3.558,3.562,3.562,0,0,0-3.558-3.558" transform="translate(-416.447 -14.392)" fill="#f5f2ec" stroke="#f5f2ec" stroke-width="0.3"/>
      <path id="Path_13756" data-name="Path 13756" d="M493.311,37.343l-.721-1.235a1.288,1.288,0,0,1-.15.006H491.5v1.229h-.8V33.169h1.741a1.874,1.874,0,0,1,1.252.376,1.319,1.319,0,0,1,.443,1.061,1.566,1.566,0,0,1-.213.834,1.291,1.291,0,0,1-.617.52l.919,1.383ZM491.5,35.411h.942a1.06,1.06,0,0,0,.691-.2.711.711,0,0,0,.239-.585.688.688,0,0,0-.239-.572,1.087,1.087,0,0,0-.691-.191H491.5Z" transform="translate(-435.492 -29.437)" fill="#f5f2ec" stroke="#f5f2ec" stroke-width="0.3"/>
    </g>
    <line id="Line_3" data-name="Line 3" y2="66.069" transform="translate(-278.996 3057.829)" fill="none" stroke="#f5f2ec" stroke-width="1"/>
  </g>
</svg>
