<svg xmlns="http://www.w3.org/2000/svg" width="120" height="120" viewBox="0 0 120 120">
  <g id="Group_51305" data-name="Group 51305" transform="translate(-10072 -1135.477)">
    <rect id="Rectangle_25440" data-name="Rectangle 25440" width="120" height="120" transform="translate(10072 1135.477)" fill="#d81525"/>
    <g id="Group_51304" data-name="Group 51304" transform="translate(10091.65 1155.127)">
      <path id="Path_13644" data-name="Path 13644" d="M141.224,182.536l-.052.01c-.073.01-.147.021-.22.037l-.854.178-.173.042c-.283.063-.566.131-.844.2-.356.089-.686.178-1.017.278-.184.052-.362.11-.545.168-.079.026-.157.047-.231.073-.063.9-.094,1.792-.094,2.672a37.423,37.423,0,0,0,1.064,8.945.073.073,0,0,1,.011-.031c.11-.267.215-.529.33-.791s.22-.5.335-.755c.1-.236.215-.466.325-.692.094-.194.194-.388.293-.576.073-.152.152-.3.231-.445.089-.173.178-.335.272-.5.079-.147.157-.288.241-.43.2-.351.4-.692.618-1.022.094-.157.194-.314.3-.466.089-.147.183-.293.283-.435-.073-.906-.11-1.824-.11-2.8a35.6,35.6,0,0,1,.194-3.731c-.121.021-.236.042-.356.068" transform="translate(-118.33 -157.378)" fill="#f5f2ec"/>
      <path id="Path_13645" data-name="Path 13645" d="M148.261,18.189l.005-.005c.005,0,.016-.005.021-.005.037-.011.079-.016.126-.026l.157-.031c.016-.005.037-.005.058-.011l.382-.079.058-.011.183-.031.419-.079c.089-.016.173-.031.262-.042.288-.058.608-.1.933-.152.409-.063.812-.115,1.221-.162.2-.026.424-.047.639-.068.031-.005.063-.005.1-.01,2.987-8.206,8.835-13.284,15.354-13.284,6.5,0,12.341,5.057,15.338,13.237l.189.529c.115.346.231.692.335,1.043h-.005l.173.582c.058.2.115.4.168.608.1.388.194.781.283,1.174.042.2.089.4.126.6.126.6.231,1.21.32,1.824l.005.005c.01.084.026.173.037.257v.011c.042.293.079.592.1.886a34.188,34.188,0,0,1,.22,3.873c0,1.022-.042,2-.126,2.992l-.011.1c-.016.162-.037.341-.052.519v.005l-.037.372c-.042.346-.089.687-.136,1.027-.084.608-.2,1.247-.351,2.012l-.052.236c-.052.23-.1.461-.157.686-.1.419-.21.833-.325,1.237-.047.162-.094.33-.147.493-.01.037-.021.079-.031.115v.005l-.037.11-.005.021c-.005.01-.005.021-.011.031-.026.079-.047.152-.068.22-.026.084-.058.168-.084.251-.052.157-.1.314-.157.466-.094.278-.2.561-.3.844l-1.52,3.322a23.1,23.1,0,0,1-1.457,2.348c-.136.2-.262.377-.4.555a52.515,52.515,0,0,1-3.92,4.182,23.511,23.511,0,0,1-5.733,3.741,30.779,30.779,0,0,0,5.539,1.148c.189.021.383.042.582.058A24.33,24.33,0,0,0,180.3,52.6l.089-.115.068-.037a24.979,24.979,0,0,0,3.343-3.878l.094-.147a.388.388,0,0,1,.026-.031c.01-.016.026-.037.042-.058.1-.141.194-.283.283-.43.21-.3.4-.608.587-.922.2-.314.388-.639.561-.964.236-.414.461-.833.665-1.268.136-.257.257-.514.372-.776.115-.246.23-.5.34-.755q.543-1.25.985-2.588c.063-.168.12-.346.178-.519l.026-.084.011-.031a36.882,36.882,0,0,0,1.687-11.172c0-.823-.031-1.661-.084-2.5l-.058-.681a36.7,36.7,0,0,0-1.032-6.168l-.157-.613C185.214,7.551,177.176,0,168.179,0c-8.824,0-16.727,7.258-19.97,18.194V18.2c.016-.005.031-.005.047-.01Z" transform="translate(-127.83)" fill="#f5f2ec"/>
      <path id="Path_13646" data-name="Path 13646" d="M218.5,148.246q.079.362.142.723a1.306,1.306,0,0,1,.042.194q.1.535.188,1.069a.067.067,0,0,1,.005.032c.063.393.12.791.173,1.184s.1.8.141,1.2a.258.258,0,0,1,.011.063.237.237,0,0,0,.005.058c.005.031.005.063.01.094,8.206,2.992,13.284,8.835,13.284,15.349s-5.078,12.362-13.284,15.354c-.157.058-.32.115-.482.173a32.284,32.284,0,0,1-6.094,1.446l-.514.068c-.168.021-.335.037-.508.053a35.235,35.235,0,0,1-6.55.084c-.094-.005-.189-.01-.283-.021-.293-.016-.6-.052-.9-.084-.021-.005-.047-.005-.068-.01-.419-.047-.828-.1-1.237-.168a30.671,30.671,0,0,1-6.23-1.609c-.068-.021-.136-.047-.2-.073-.031-.011-.063-.026-.094-.037a23.3,23.3,0,0,1-8.966-5.89c-.126-.115-.251-.231-.377-.351s-.246-.241-.372-.367a23.021,23.021,0,0,1-4.36-6.377c-.068.22-.136.445-.2.676-.12.414-.225.838-.325,1.268-.037.152-.068.3-.1.461l-.047.2c-.026.126-.052.257-.079.388-.052.278-.1.555-.152.839-.047.262-.084.529-.126.8-.031.225-.063.451-.089.681v.01a.66.66,0,0,1,.058.1c.005.01.016.026.021.037.031.063.063.126.094.183s.068.126.1.183a.214.214,0,0,0,.026.047c.005.016.016.026.021.042a.005.005,0,0,1,.005.005.311.311,0,0,1,.021.042c0,.005.005.005.005.011.052.089.1.183.157.278s.11.189.168.278c.037.063.073.126.115.189.058.1.121.194.184.293l.031.047c.042.073.094.147.141.215s.079.11.115.168c.11.168.225.335.351.5.084.121.168.236.257.351a.018.018,0,0,0,.005.011c.147.194.3.388.451.576.3.372.618.734.954,1.1.005.005.011.005.011.01a.019.019,0,0,0,.005.011h.005a25.043,25.043,0,0,0,4.108,3.537c.608.419,1.232.817,1.881,1.195a32.177,32.177,0,0,0,6.189,2.762l.241.079c.346.11.692.215,1.038.309q.645.189,1.3.346a37.691,37.691,0,0,0,11.324.99c.272-.015.54-.037.807-.057a36.523,36.523,0,0,0,6.168-1.032c.272-.068.545-.142.812-.22,11.193-3.155,18.655-11.151,18.655-20.1,0-8.825-7.258-16.721-18.194-19.965" transform="translate(-155.998 -127.862)" fill="#f5f2ec"/>
      <path id="Path_13647" data-name="Path 13647" d="M324.632,140.375c-.047-.246-.1-.487-.162-.728s-.121-.482-.183-.723-.126-.477-.194-.718-.136-.477-.215-.707c-.01-.037-.021-.073-.031-.1s-.021-.073-.031-.1h-.006c-.948-.063-1.823-.094-2.667-.094a37.6,37.6,0,0,0-8.95,1.064q.44.173.865.362c.2.084.393.168.587.257.11.047.22.094.325.152.2.089.4.189.6.283a2.15,2.15,0,0,1,.22.11c.367.183.728.372,1.079.571.231.121.466.252.692.388.288.163.566.33.844.508.162.1.325.2.487.309s.3.194.456.3c.943-.073,1.886-.11,2.8-.11a35.879,35.879,0,0,1,3.721.2h.005c-.021-.131-.047-.262-.074-.388a1.86,1.86,0,0,0-.047-.246c-.037-.194-.074-.383-.115-.576" transform="translate(-269.266 -118.329)" fill="#f5f2ec"/>
      <path id="Path_13648" data-name="Path 13648" d="M178.031,218.607a37.959,37.959,0,0,1-4.108.613v.005a25.281,25.281,0,0,1-3.956,7.184l-.178.215c-.12.147-.257.3-.393.461s-.288.33-.435.487a19.96,19.96,0,0,1-1.777,1.667c-.068.057-.147.12-.225.183-.152.121-.325.251-.5.377l-.11.084a13.959,13.959,0,0,1-3.993,2.028q-.149.047-.315.094l-.43.115c-.12.032-.267.068-.419.1l-.445.089c-.246.047-.487.079-.728.1s-.493.052-.749.068h-.078c-.136.01-.325.016-.508.016h-.094c-.147,0-.293-.005-.44-.01l-.089-.005c-.335-.01-.671-.047-.954-.084l-.094-.016a.3.3,0,0,1-.073-.01l-.115-.016c-.021-.005-.042-.005-.058-.01l-.079-.01a13.89,13.89,0,0,1-1.624-.372,14.9,14.9,0,0,1-1.708-.65l-.409-.2c-.4-.2-.8-.424-1.21-.681-.367-.231-.713-.466-1.043-.713s-.655-.508-1-.807a16.593,16.593,0,0,1-1.415-1.357c-.325-.351-.613-.676-.88-1-.4-.5-.817-1.058-1.216-1.651-.377-.555-.744-1.163-1.106-1.808-.23-.43-.451-.854-.666-1.294-.3-.624-.592-1.294-.886-2.054-.068-.178-.136-.351-.2-.529l-.173-.487a32.665,32.665,0,0,1-1.446-6.084l-.005-.058c-.042-.309-.084-.629-.115-.948-.021-.21-.042-.425-.058-.639-.094-1.016-.142-2.07-.142-3.134,0-.76.021-1.5.068-2.227h-.01l.047-.56.01-.163V204.9l.005-.073.005-.037a.089.089,0,0,1,.005-.037l.031-.33c.011-.1.021-.194.032-.288,0-.01.005-.016.005-.026.005-.068.016-.136.021-.2.037-.3.073-.608.115-.912s.089-.587.141-.88c.037-.241.084-.482.126-.718v-.005c.011-.057.021-.1.031-.157.058-.288.115-.571.178-.854a.1.1,0,0,0,.01-.042c.063-.283.131-.561.2-.839.063-.262.131-.519.2-.775.168-.592.346-1.174.545-1.745.11-.309.22-.613.335-.912.236-.618.493-1.226.77-1.813q.079-.181.173-.362a22.23,22.23,0,0,1,4.947-6.8l.121-.121a22.322,22.322,0,0,1,6.975-4.989c-.246-.078-.5-.147-.755-.22q-.448-.126-.912-.236c-.314-.073-.634-.147-.954-.215s-.634-.126-.954-.183-.65-.11-.975-.157c-.251-.042-.5-.073-.755-.1a.005.005,0,0,0-.005.005,20.171,20.171,0,0,0-4.721,3.322,24.432,24.432,0,0,0-3.464,4.019v.005l-.142.2c-.178.257-.351.519-.524.791q-.244.377-.472.77c-.115.183-.22.367-.32.55-.063.11-.126.225-.189.341-.136.236-.262.477-.383.718-.031.063-.063.126-.094.194-.115.215-.22.435-.325.655-.126.262-.251.535-.372.812-.115.257-.231.519-.335.791a.841.841,0,0,0-.047.121c-.052.126-.1.251-.152.383l-.063.157-.063.157c-.026.068-.052.141-.079.21-.042.11-.079.215-.115.32a.885.885,0,0,0-.037.11c-.052.131-.1.267-.147.4l-.225.691c-.037.11-.073.225-.1.335-.115.377-.22.749-.314,1.111-.1.388-.21.776-.3,1.169-.089.372-.173.755-.257,1.142a2.685,2.685,0,0,1-.052.288c-.053.262-.1.55-.152.833l-.063.393c-.047.278-.084.508-.11.749l-.068.456c-.026.225-.053.461-.073.7l-.011.058c-.016.141-.031.272-.042.409-.026.278-.047.529-.068.781l-.031.446c-.01.267-.026.54-.037.817l-.016.388c-.016.4-.021.807-.021,1.211,0,.907.032,1.792.094,2.709h-.005l.042.482v.005c.037.43.079.859.131,1.284v.005c.01.1.021.2.037.309.021.183.047.372.073.561.011.073.021.141.031.215.037.257.079.508.121.76s.089.514.136.765c.1.571.231,1.132.362,1.682.047.194.094.382.141.571l.026.1.016.063v.005a.9.9,0,0,0,.037.126c.01.042.021.084.031.12.079.288.162.571.241.849a.975.975,0,0,1,.037.115l.121.393c.293.933.618,1.839.964,2.683.037.079.073.168.1.257a30.49,30.49,0,0,0,2.531,4.8l.052.089a.321.321,0,0,1,.042.063,25.588,25.588,0,0,0,3.5,4.276c.393.393.807.77,1.263,1.153a18.108,18.108,0,0,0,9.511,4.265c.121.016.231.031.341.042.231.016.472.037.713.047h.011c.068,0,.168.005.262.011l.1.01h.467c.12,0,.251,0,.377-.005a1.85,1.85,0,0,0,.2-.011h.058a1.036,1.036,0,0,1,.121-.005l.577-.042c.178-.011.356-.031.529-.058.241-.026.456-.047.676-.084.288-.047.582-.1.87-.168.356-.079.7-.168,1.043-.273a12.2,12.2,0,0,0,1.582-.535,17.89,17.89,0,0,0,1.8-.833c.524-.278,1.048-.587,1.609-.959.424-.283.786-.545,1.111-.791.21-.163.414-.325.613-.493.162-.126.3-.251.451-.377.288-.251.576-.519.865-.791a26.7,26.7,0,0,0,4.816-6.419l.173-.32c.236-.435.435-.844.618-1.232l.215-.456c.168-.367.335-.755.508-1.184.241-.6.451-1.153.639-1.693.089-.252.173-.5.257-.76V219.2l.037-.126c.047-.142.151-.464.2-.616l-.439.1Z" transform="translate(-118.33 -155.998)" fill="#f5f2ec"/>
      <path id="Path_13649" data-name="Path 13649" d="M183.522,422.086h.016a37.54,37.54,0,0,0,11.6-.969,31.651,31.651,0,0,1-6.126-3.238c-.9.073-1.834.11-2.809.11-1.179,0-2.39-.063-3.6-.183a.923.923,0,0,1-.12-.011h-.01c.031.173.058.341.1.508.058.325.126.644.194.964a28.621,28.621,0,0,0,.76,2.819" transform="translate(-157.379 -360.346)" fill="#f5f2ec"/>
      <path id="Path_13650" data-name="Path 13650" d="M417.756,324.873l.163-.032.157-.031c.3-.047.6-.1.9-.173s.618-.131.922-.209a.646.646,0,0,0,.094-.026c.33-.079.66-.168.99-.262.052-.011.1-.026.157-.042.293-.084.581-.173.87-.267l.047-.016c.063-.9.094-1.782.094-2.673a37.484,37.484,0,0,0-1.064-8.95l-.005.005c-.194.487-.4.964-.613,1.431-.073.157-.142.315-.215.466-.225.482-.461.954-.7,1.41-.089.183-.188.362-.294.54s-.2.351-.293.519c-.2.341-.4.665-.6.985-.078.126-.162.257-.246.382s-.162.257-.252.383c-.005.011-.01.016-.016.026s.005.042.005.063c.068.9.1,1.792.1,2.741a35.482,35.482,0,0,1-.2,3.726Z" transform="translate(-360.313 -269.265)" fill="#f5f2ec"/>
      <path id="Path_13651" data-name="Path 13651" d="M4.213,157.925c.01-.157.026-.3.042-.451a8.3,8.3,0,0,1,.11-.854c.016-.11.037-.246.068-.383a2.574,2.574,0,0,1,.073-.325,7.663,7.663,0,0,1,.231-.87c.031-.115.084-.278.141-.43.031-.115.094-.273.152-.424.084-.236.189-.482.3-.734.094-.21.194-.419.309-.634.115-.231.246-.466.383-.7.079-.136.162-.267.246-.4.141-.236.314-.5.524-.786l.273-.372c.189-.246.372-.482.566-.707.283-.341.592-.681.922-1.006.141-.147.3-.3.461-.456.079-.079.173-.162.262-.246l.141-.126q.181-.165.361-.314c.3-.257.6-.5.9-.723.147-.115.32-.246.5-.367a22.553,22.553,0,0,1,3.291-1.986c.141-.079.309-.157.472-.241.372-.178.765-.356,1.252-.561.157-.068.32-.136.482-.194.262-.11.529-.21.8-.309.157-.058.32-.115.482-.173h.005c.251-.084.5-.168.76-.246.173-.058.367-.115.571-.178.351-.1.7-.2,1.064-.288.288-.079.587-.147.891-.215l.2-.052c.288-.058.576-.12.859-.173a2.89,2.89,0,0,1,.288-.052c.215-.042.43-.084.65-.121.273-.042.54-.079.807-.121.288-.037.576-.073.865-.1l.157-.016.372-.042c.21-.021.419-.042.629-.052s.44-.031.676-.047a.949.949,0,0,1,.178-.005c.163-.016.33-.021.5-.026l.173-.01c.886-.031,1.734-.026,2.583.005l.618.031.524.031c.178.011.346.026.519.042l.063.005c.278.021.55.052.823.079l.073.011a.068.068,0,0,1,.031.005l.513.063c.173.021.341.047.508.073.341.047.681.1,1.011.162a30.742,30.742,0,0,1,5.764,1.588h.005l.01.005.173.063c.215.089.424.173.634.262.147.057.325.136.5.215.163.073.33.147.493.225q.2.087.409.189c.22.11.44.22.65.335.094.047.22.115.351.183l.1.053c.22.12.44.246.655.372l.136.079.361.22c.251.157.5.32.749.487l.073.047.142.094.058.042c.042.031.084.058.126.089.283.194.576.409.849.629.309.236.639.508.969.8.068.063.152.136.231.21l.1.1c.367.341.676.645.954.938l.058.058h.005c.131.115.262.231.393.351.11.1.225.21.335.32l.33.33.33.346c.1.115.215.231.32.351.21.241.419.488.618.739s.4.508.6.776a24.43,24.43,0,0,1,2.379,4.009c.047-.157.094-.314.141-.477.126-.435.241-.875.346-1.331.052-.215.1-.435.152-.66v-.241l.058-.063.005-.005c.047-.225.084-.44.12-.65.016-.094.031-.183.047-.272.047-.267.089-.524.126-.776.01-.073.021-.147.031-.225.026-.178.047-.356.068-.534v-.005a19.506,19.506,0,0,0-1.394-2.337,20.945,20.945,0,0,0-1.9-2.358c-.136-.136-.236-.246-.341-.351-.152-.152-.293-.3-.435-.44-.246-.246-.529-.508-.886-.823-.152-.136-.3-.262-.451-.388-.131-.115-.236-.2-.335-.283l-.136-.115a1.069,1.069,0,0,1-.089-.068c-.178-.142-.356-.278-.54-.414-.22-.168-.44-.33-.666-.493l-.094-.063-.147-.1c-.55-.388-1.121-.749-1.708-1.1a31.874,31.874,0,0,0-6.508-2.908l-.084-.026c-.094-.031-.189-.058-.283-.089-.639-.194-1.184-.351-1.7-.482a37.866,37.866,0,0,0-11.989-1.058.089.089,0,0,0-.037.005c-.079.005-.157.005-.236.016l-.236.016c-.1.005-.2.016-.293.026l-.278.031c-.23.016-.419.037-.608.063-.4.047-.8.1-1.19.152-.3.047-.6.094-.9.147-.168.026-.3.052-.435.079l-.817.157-.157.032a1.03,1.03,0,0,0-.136.026c-.016.005-.031.005-.047.01h-.005c-.121.026-.241.058-.356.084-.32.073-.634.152-.943.231-.262.068-.508.136-.755.21l-.634.178c-.089.026-.183.058-.278.089s-.2.058-.3.089v.005h-.005c-.026.005-.047.016-.073.021l-.063.026a30.978,30.978,0,0,0-7.42,3.5l-.01.005-.01.005-.063.037c-.031.021-.063.042-.1.068-.152.089-.32.2-.482.32H9.265l-.052.037c-.173.121-.341.241-.508.367l-.031.021a.342.342,0,0,1-.058.037c-.168.126-.33.246-.487.372-.2.157-.4.314-.6.472L5.4,146.172c-.094.1-.21.22-.325.346l-.126.136c-.094.1-.2.22-.294.335l-.047.052c-.031.031-.063.068-.094.1-.157.189-.3.361-.44.54s-.288.362-.424.545c-.11.136-.215.288-.32.435-.121.157-.22.3-.314.451-.11.162-.2.309-.293.451-.21.335-.372.613-.514.87-.079.131-.136.246-.194.351-.152.278-.288.545-.409.812-.079.162-.147.32-.22.487-.047.115-.089.2-.126.3l-.147.367c-.115.3-.225.613-.325.927-.063.173-.1.325-.147.477a15.692,15.692,0,0,0-.414,1.8c-.026.141-.047.273-.068.409-.031.246-.063.5-.089.755-.016.136-.026.262-.037.388-.01.2-.021.414-.026.624-.005.183-.01.362-.01.54s.005.356.01.534c.005.215.016.425.026.629.01.126.021.252.037.377.026.267.058.519.089.77.026.157.042.278.063.4a16.91,16.91,0,0,0,.875,3.17c.047.131.1.262.157.388a12.78,12.78,0,0,0,.54,1.184c.058.126.11.231.162.325l.037.073c.131.252.273.5.419.755.2.33.424.686.718,1.127l.257.361c.115.163.241.325.367.493.1.136.2.267.3.388.152.189.293.367.44.534l.2.236c.031.037.063.073.1.11l.1.115c.073.078.152.162.225.251l.3.314c.215.225.435.44.66.66s.461.425.7.634c.2.173.4.346.608.519.068.052.147.121.225.194.189.147.409.325.639.493.246.189.5.372.749.55l.131.094a28.64,28.64,0,0,0,3.217,1.944l.141.073c.629.32,1.258.618,1.871.88l.141.063c.424.183.865.356,1.315.529l.608.225c.3.1.6.21.917.309l.194.068c.215.068.424.131.644.2-.084-.367-.157-.734-.225-1.111-.052-.262-.1-.529-.141-.791-.016-.089-.031-.178-.042-.267s-.026-.157-.037-.236a.265.265,0,0,1-.011-.063c-.016-.094-.031-.189-.042-.288-.021-.12-.037-.241-.052-.367,0-.011-.005-.026-.005-.037s-.005-.037-.005-.052c-.016-.094-.021-.189-.037-.288-.005-.052-.011-.1-.016-.152-.021-.157-.037-.32-.058-.482s-.031-.314-.047-.477h-.005a27.029,27.029,0,0,1-5.051-2.452c-.21-.131-.419-.267-.624-.409-.183-.121-.388-.262-.587-.4-.54-.388-1.1-.828-1.645-1.3a18.8,18.8,0,0,1-2.028-2.08c-.141-.173-.278-.341-.409-.508-.262-.346-.493-.676-.7-1a2.985,2.985,0,0,1-.173-.267c-.1-.152-.189-.3-.278-.461-.1-.178-.21-.372-.314-.566l-.052-.1c-.073-.152-.152-.32-.231-.487a.929.929,0,0,1-.052-.121c-.068-.136-.141-.314-.21-.493-.016-.037-.047-.11-.073-.183-.037-.094-.079-.21-.126-.336l-.262-.283.1-.21c-.031-.11-.068-.225-.1-.335-.047-.163-.094-.346-.136-.524-.037-.147-.068-.32-.1-.488l-.079-.424c-.026-.183-.052-.372-.073-.571-.01-.1-.021-.231-.031-.357-.016-.11-.021-.22-.026-.33-.01-.23-.016-.44-.016-.66,0-.168.005-.33.01-.5,0-.068.005-.157.01-.251" transform="translate(0 -118.325)" fill="#f5f2ec"/>
    </g>
  </g>
</svg>
