<svg id="Group_51300" data-name="Group 51300" xmlns="http://www.w3.org/2000/svg" width="648.534" height="648.534" viewBox="0 0 648.534 648.534">
  <path id="Path_13644" data-name="Path 13644" d="M169.579,183.015l-.421.084c-.59.083-1.179.168-1.769.295-2.4.505-4.633.969-6.865,1.432l-1.389.337c-2.274.5-4.548,1.052-6.781,1.642-2.862.716-5.516,1.432-8.169,2.232-1.475.421-2.907.884-4.379,1.347-.632.211-1.264.379-1.853.59-.506,7.2-.758,14.4-.758,21.477a300.756,300.756,0,0,0,8.548,71.887.584.584,0,0,1,.085-.252c.885-2.15,1.727-4.254,2.653-6.361.885-2.021,1.77-4.043,2.7-6.064.842-1.9,1.728-3.747,2.612-5.558.758-1.559,1.557-3.117,2.357-4.633.59-1.221,1.221-2.4,1.854-3.58.715-1.389,1.43-2.694,2.188-4.042.632-1.179,1.264-2.317,1.939-3.454,1.6-2.821,3.242-5.559,4.969-8.212.757-1.264,1.558-2.526,2.4-3.748.715-1.178,1.472-2.358,2.273-3.495-.59-7.285-.885-14.655-.885-22.489a286.05,286.05,0,0,1,1.559-29.983c-.969.168-1.9.337-2.864.547" transform="translate(14.406 19.169)" fill="#e2e2e2"/>
  <path id="Path_13645" data-name="Path 13645" d="M148.629,146.174l.042-.042c.042,0,.126-.042.169-.042.294-.085.631-.127,1.01-.211l1.264-.252c.126-.043.294-.043.463-.085l3.074-.631.463-.085,1.474-.252,3.368-.632c.716-.126,1.39-.253,2.106-.337,2.316-.463,4.885-.842,7.5-1.221,3.285-.505,6.528-.926,9.813-1.305,1.642-.211,3.411-.379,5.137-.548.253-.042.506-.042.8-.084C209.315,74.5,256.312,33.691,308.7,33.691c52.22,0,99.176,40.638,123.264,106.377l1.516,4.253c.928,2.779,1.853,5.56,2.7,8.381h-.042l1.39,4.674c.463,1.6.927,3.243,1.348,4.885.8,3.116,1.558,6.275,2.274,9.433.337,1.6.716,3.2,1.011,4.843,1.01,4.842,1.854,9.728,2.568,14.655l.043.042c.084.674.21,1.39.294,2.063v.085c.337,2.358.632,4.758.842,7.117a274.7,274.7,0,0,1,1.769,31.122c0,8.212-.337,16.087-1.01,24.047l-.085.8c-.126,1.305-.295,2.737-.421,4.168v.043l-.295,2.989c-.337,2.78-.716,5.517-1.094,8.255-.674,4.884-1.6,10.023-2.822,16.171l-.421,1.9c-.421,1.852-.8,3.705-1.263,5.516-.8,3.369-1.685,6.7-2.611,9.939-.379,1.3-.758,2.653-1.179,3.958-.084.3-.167.632-.253.926v.043l-.295.884-.041.168c-.043.084-.043.169-.085.253-.21.632-.379,1.221-.547,1.769-.211.673-.463,1.347-.674,2.021-.421,1.263-.843,2.526-1.263,3.748-.758,2.231-1.6,4.505-2.443,6.779l-12.211,26.7a185.661,185.661,0,0,1-11.708,18.867c-1.1,1.6-2.105,3.032-3.2,4.463-6.527,8.76-27.668,30.154-31.5,33.607A188.942,188.942,0,0,1,326.177,439.7a247.363,247.363,0,0,0,44.514,9.223c1.516.168,3.074.336,4.675.463a195.543,195.543,0,0,0,30.784-26.7l.716-.926.547-.295A200.752,200.752,0,0,0,434.281,390.3l.757-1.179a3.124,3.124,0,0,1,.211-.252c.084-.127.21-.3.337-.464.8-1.137,1.558-2.274,2.274-3.453,1.684-2.442,3.242-4.884,4.717-7.412,1.6-2.526,3.116-5.137,4.506-7.749,1.894-3.327,3.705-6.7,5.347-10.191,1.095-2.064,2.064-4.127,2.991-6.234.927-1.979,1.852-4,2.736-6.065q4.36-10.043,7.918-20.8c.5-1.348.967-2.78,1.431-4.169l.211-.674.085-.253a296.407,296.407,0,0,0,13.56-89.784c0-6.611-.253-13.35-.674-20.13l-.463-5.476a294.9,294.9,0,0,0-8.3-49.566l-1.263-4.927C445.61,60.685,381.008,0,308.7,0,237.783,0,174.276,58.327,148.208,146.216v.042c.126-.042.253-.042.379-.084Z" transform="translate(15.56)" fill="#e2e2e2"/>
  <path id="Path_13646" data-name="Path 13646" d="M483.322,148.246q.631,2.905,1.137,5.812a10.493,10.493,0,0,1,.337,1.557q.82,4.3,1.515,8.591a.535.535,0,0,1,.042.253c.505,3.158.968,6.36,1.39,9.517.422,3.2.8,6.443,1.136,9.645a2.084,2.084,0,0,1,.086.5,1.9,1.9,0,0,0,.042.464c.041.253.041.506.084.757,65.949,24.048,106.756,71,106.756,123.349,0,52.388-40.808,99.344-106.756,123.391-1.263.464-2.569.928-3.874,1.39A259.427,259.427,0,0,1,436.24,445.1l-4.127.547c-1.347.17-2.7.3-4.085.423a283.169,283.169,0,0,1-52.64.674c-.759-.043-1.517-.084-2.274-.169-2.358-.125-4.8-.42-7.243-.674-.17-.042-.38-.042-.547-.083-3.37-.38-6.655-.842-9.939-1.348a246.5,246.5,0,0,1-50.072-12.929c-.548-.168-1.1-.378-1.6-.589-.252-.085-.506-.211-.759-.3C273.768,419.5,248.837,403.113,230.9,383.32c-1.01-.926-2.021-1.853-3.031-2.822s-1.98-1.937-2.991-2.948c-13.769-13.94-25.645-31.332-35.038-51.251-.546,1.769-1.093,3.579-1.6,5.433-.968,3.325-1.81,6.736-2.611,10.191-.294,1.22-.547,2.442-.8,3.706-.125.547-.252,1.1-.379,1.642-.21,1.01-.421,2.063-.632,3.116-.421,2.232-.842,4.464-1.221,6.739-.379,2.105-.673,4.254-1.011,6.4-.253,1.812-.505,3.623-.715,5.476v.084a5.3,5.3,0,0,1,.463.842c.043.084.127.21.17.294.251.5.5,1.011.758,1.474.252.505.546,1.009.8,1.472a1.724,1.724,0,0,0,.209.38c.042.127.127.21.17.337a.041.041,0,0,1,.042.041,2.5,2.5,0,0,1,.169.337c0,.043.043.043.043.085.421.714.842,1.473,1.263,2.232.463.757.884,1.516,1.347,2.232.3.506.59,1.011.926,1.516.463.8.969,1.558,1.475,2.358.085.126.168.254.252.379.337.59.757,1.18,1.137,1.728.3.464.632.884.927,1.348.884,1.348,1.81,2.694,2.821,4.041.674.97,1.347,1.9,2.064,2.822a.148.148,0,0,0,.042.085c1.179,1.558,2.4,3.116,3.622,4.633,2.4,2.99,4.969,5.9,7.664,8.8.042.042.085.042.085.083a.154.154,0,0,0,.041.085h.042a201.259,201.259,0,0,0,33.016,28.426c4.886,3.369,9.9,6.568,15.118,9.6a258.579,258.579,0,0,0,49.735,22.194c.632.211,1.305.421,1.937.632,2.78.885,5.559,1.727,8.339,2.485q5.18,1.518,10.485,2.78a302.9,302.9,0,0,0,91.008,7.958c2.19-.124,4.337-.294,6.486-.462a293.52,293.52,0,0,0,49.566-8.3c2.19-.547,4.38-1.137,6.527-1.768,89.954-25.352,149.922-89.615,149.922-161.545,0-70.918-58.327-134.382-146.215-160.45" transform="translate(18.997 15.572)" fill="#e2e2e2"/>
  <path id="Path_13647" data-name="Path 13647" d="M412.169,162.756c-.378-1.979-.8-3.917-1.305-5.854-.464-1.937-.969-3.874-1.474-5.812s-1.011-3.832-1.559-5.769c-.5-1.895-1.094-3.832-1.727-5.685-.083-.295-.167-.59-.252-.842-.083-.3-.169-.59-.251-.843h-.044c-7.622-.505-14.654-.757-21.435-.757a302.159,302.159,0,0,0-71.93,8.548q3.538,1.39,6.949,2.906c1.6.674,3.159,1.348,4.718,2.064.884.379,1.768.758,2.609,1.221,1.6.717,3.2,1.517,4.8,2.274a17.246,17.246,0,0,1,1.768.884c2.948,1.474,5.855,2.99,8.675,4.59,1.855.969,3.749,2.021,5.561,3.116,2.315,1.306,4.548,2.654,6.779,4.086,1.3.8,2.611,1.642,3.917,2.484q1.833,1.137,3.664,2.4c7.58-.589,15.16-.884,22.488-.884a288.339,288.339,0,0,1,29.9,1.6h.042c-.168-1.052-.38-2.1-.592-3.116a14.92,14.92,0,0,0-.377-1.979c-.3-1.558-.591-3.074-.927-4.633" transform="translate(32.787 14.413)" fill="#e2e2e2"/>
  <path id="Path_13648" data-name="Path 13648" d="M465.381,484.163a305.066,305.066,0,0,1-33.017,4.928v.042c-8.043,22.025-18.7,41.4-31.795,57.737l-1.432,1.727c-.968,1.179-2.063,2.442-3.158,3.705-1.137,1.348-2.316,2.653-3.495,3.916a160.407,160.407,0,0,1-14.278,13.393c-.547.462-1.178.967-1.81,1.473-1.221.969-2.612,2.021-4,3.032l-.884.674a112.188,112.188,0,0,1-32.09,16.3q-1.2.379-2.528.758l-3.453.926c-.968.254-2.149.548-3.37.8l-3.579.716c-1.98.379-3.917.632-5.854.842-1.98.211-3.958.422-6.023.547h-.631c-1.1.084-2.611.127-4.086.127h-.758c-1.18,0-2.358-.043-3.537-.084l-.716-.043c-2.7-.083-5.391-.378-7.665-.673l-.758-.126a2.429,2.429,0,0,1-.589-.084c-.337-.042-.674-.085-.927-.126-.168-.042-.337-.042-.463-.084l-.632-.084a111.642,111.642,0,0,1-13.055-2.99,119.648,119.648,0,0,1-13.728-5.222l-3.285-1.6c-3.242-1.643-6.4-3.411-9.727-5.475-2.949-1.853-5.728-3.747-8.381-5.728-2.7-1.978-5.264-4.084-8-6.485a133.451,133.451,0,0,1-11.37-10.907c-2.611-2.821-4.927-5.432-7.075-8.044-3.242-4.042-6.569-8.507-9.771-13.265-3.032-4.464-5.98-9.35-8.886-14.529-1.852-3.454-3.621-6.865-5.348-10.4-2.4-5.012-4.758-10.4-7.117-16.508-.547-1.432-1.094-2.821-1.6-4.253q-.693-1.958-1.389-3.916A262.5,262.5,0,0,1,173.5,436.282l-.043-.464c-.337-2.484-.673-5.054-.925-7.621-.169-1.686-.338-3.412-.463-5.139-.758-8.169-1.138-16.634-1.138-25.183,0-6.107.168-12.044.547-17.9h-.084l.379-4.5.084-1.307V374l.042-.59.043-.3a.713.713,0,0,1,.042-.293q.126-1.325.252-2.653c.085-.8.169-1.557.253-2.316,0-.084.043-.125.043-.211.042-.546.125-1.094.167-1.642.3-2.443.591-4.885.928-7.328q.506-3.536,1.137-7.074c.3-1.938.674-3.875,1.01-5.769v-.044c.086-.462.169-.842.253-1.263.463-2.316.927-4.591,1.432-6.865a.8.8,0,0,0,.084-.337c.5-2.273,1.053-4.505,1.642-6.738.506-2.1,1.053-4.168,1.643-6.232,1.347-4.759,2.779-9.434,4.379-14.024.885-2.484,1.769-4.926,2.7-7.327,1.9-4.969,3.959-9.854,6.191-14.571q.632-1.451,1.39-2.906c10.486-21.689,24.046-40.344,39.755-54.621l.969-.968c14.528-15.876,33.648-29.519,56.052-40.091-1.979-.631-4-1.179-6.065-1.768q-3.6-1.011-7.328-1.9c-2.526-.589-5.1-1.179-7.664-1.727-2.526-.505-5.1-1.01-7.664-1.473q-3.917-.7-7.833-1.264c-2.021-.337-4.042-.589-6.064-.842a.041.041,0,0,0-.042.042,162.1,162.1,0,0,0-37.943,26.7,196.337,196.337,0,0,0-27.837,32.3v.041l-1.137,1.644c-1.431,2.063-2.822,4.169-4.211,6.359q-1.958,3.033-3.79,6.19c-.927,1.474-1.769,2.948-2.569,4.423-.5.884-1.011,1.811-1.516,2.737-1.095,1.894-2.1,3.832-3.074,5.769-.253.5-.5,1.011-.758,1.558-.926,1.728-1.77,3.495-2.612,5.264-1.01,2.106-2.021,4.3-2.989,6.529-.928,2.062-1.853,4.169-2.7,6.357a6.731,6.731,0,0,0-.38.969c-.421,1.011-.842,2.021-1.221,3.075q-.253.631-.505,1.263l-.5,1.264c-.212.547-.422,1.137-.632,1.685-.337.884-.632,1.726-.926,2.568a7.067,7.067,0,0,0-.3.885c-.421,1.052-.8,2.148-1.179,3.2l-1.811,5.557c-.3.886-.59,1.812-.842,2.7-.927,3.033-1.769,6.023-2.527,8.928-.843,3.117-1.684,6.233-2.4,9.392-.716,2.989-1.389,6.064-2.063,9.181a21.585,21.585,0,0,1-.421,2.316c-.423,2.1-.843,4.421-1.223,6.695l-.5,3.159c-.379,2.231-.674,4.085-.884,6.022L139.6,359.3c-.211,1.811-.422,3.705-.59,5.6l-.085.463c-.127,1.137-.253,2.19-.336,3.285-.212,2.232-.379,4.253-.548,6.274l-.252,3.581c-.084,2.147-.211,4.337-.3,6.569l-.126,3.116c-.127,3.243-.169,6.485-.169,9.728,0,7.286.253,14.4.758,21.772h-.042l.337,3.875v.042c.3,3.453.632,6.906,1.054,10.316v.043c.083.8.168,1.642.295,2.485.167,1.474.378,2.991.588,4.507.084.589.169,1.137.253,1.725.295,2.065.632,4.086.969,6.107.337,2.064.716,4.127,1.095,6.148.842,4.591,1.853,9.1,2.907,13.519.377,1.558.757,3.074,1.136,4.59l.211.843c.041.168.084.336.126.505v.042a7.2,7.2,0,0,0,.3,1.01c.083.338.169.674.253.968.633,2.317,1.305,4.591,1.937,6.822a7.822,7.822,0,0,1,.294.927l.97,3.158c2.358,7.5,4.969,14.783,7.748,21.562.3.632.59,1.348.842,2.065a245.011,245.011,0,0,0,20.341,38.575l.421.716a2.573,2.573,0,0,1,.337.5,205.654,205.654,0,0,0,28.131,34.364c3.159,3.159,6.486,6.191,10.15,9.267,22.992,19.286,49.4,31.162,76.434,34.279.969.127,1.853.253,2.738.337,1.853.127,3.789.3,5.726.379h.085c.547,0,1.347.041,2.106.085l.8.083h3.749c.967,0,2.021,0,3.032-.041a14.839,14.839,0,0,0,1.6-.086h.463a8.309,8.309,0,0,1,.969-.041l4.633-.336c1.431-.086,2.863-.253,4.253-.464,1.937-.209,3.664-.379,5.432-.675,2.317-.378,4.675-.842,6.991-1.346,2.863-.633,5.643-1.349,8.381-2.191a97.99,97.99,0,0,0,12.718-4.3,143.786,143.786,0,0,0,14.444-6.7c4.211-2.232,8.423-4.718,12.929-7.707,3.411-2.274,6.317-4.38,8.928-6.359,1.685-1.306,3.326-2.611,4.928-3.958,1.3-1.012,2.442-2.021,3.621-3.032,2.316-2.021,4.632-4.17,6.948-6.359a214.589,214.589,0,0,0,38.7-51.588l1.39-2.57c1.9-3.495,3.5-6.781,4.968-9.9l1.727-3.662c1.348-2.948,2.695-6.065,4.085-9.518,1.937-4.8,3.621-9.266,5.137-13.6.717-2.023,1.389-4.044,2.063-6.107v-.042l.3-1.011c.379-1.138,1.212-3.729,1.591-4.95l-3.529.822Z" transform="translate(14.406 18.997)" fill="#e2e2e2"/>
  <path id="Path_13649" data-name="Path 13649" d="M190.933,452.285h.126a301.7,301.7,0,0,0,93.2-7.791,254.355,254.355,0,0,1-49.23-26.027c-7.242.591-14.739.884-22.572.884-9.476,0-19.2-.5-28.932-1.472a7.421,7.421,0,0,1-.968-.086h-.084c.253,1.391.462,2.739.8,4.086.463,2.61,1.012,5.177,1.559,7.749a230,230,0,0,0,6.107,22.656" transform="translate(19.163 43.885)" fill="#e2e2e2"/>
  <path id="Path_13650" data-name="Path 13650" d="M417.756,414.106c.42-.083.884-.168,1.306-.253s.842-.168,1.262-.252c2.444-.378,4.8-.843,7.2-1.391,2.486-.505,4.969-1.052,7.412-1.683a5.209,5.209,0,0,0,.759-.211c2.655-.632,5.307-1.348,7.959-2.105.421-.085.841-.213,1.265-.337,2.357-.675,4.673-1.391,6.989-2.148.126-.043.251-.086.379-.125.5-7.245.758-14.318.758-21.479a301.24,301.24,0,0,0-8.551-71.93l-.041.043c-1.558,3.917-3.242,7.75-4.926,11.5-.589,1.264-1.139,2.528-1.728,3.748-1.809,3.875-3.706,7.665-5.643,11.327-.714,1.474-1.515,2.906-2.359,4.339-.8,1.43-1.6,2.821-2.358,4.169-1.6,2.736-3.2,5.347-4.842,7.917-.63,1.012-1.306,2.063-1.979,3.074-.632,1.054-1.3,2.063-2.021,3.075-.043.085-.084.125-.126.211,0,.167.042.335.042.5.548,7.2.841,14.4.841,22.025a285.215,285.215,0,0,1-1.6,29.944Z" transform="translate(43.885 32.793)" fill="#e2e2e2"/>
  <path id="Path_13651" data-name="Path 13651" d="M33.859,303.835c.084-1.263.211-2.442.337-3.62a66.672,66.672,0,0,1,.884-6.865c.127-.885.3-1.979.548-3.075a20.68,20.68,0,0,1,.589-2.611,61.585,61.585,0,0,1,1.853-6.99c.253-.928.674-2.233,1.137-3.454.253-.927.758-2.19,1.221-3.411.674-1.9,1.516-3.875,2.4-5.9.758-1.685,1.558-3.368,2.485-5.1.926-1.853,1.979-3.747,3.074-5.643.632-1.095,1.305-2.148,1.979-3.243,1.137-1.9,2.527-4,4.211-6.317l2.19-2.991c1.515-1.979,2.989-3.874,4.547-5.685,2.274-2.737,4.759-5.474,7.413-8.085,1.137-1.18,2.4-2.443,3.705-3.664.632-.631,1.39-1.306,2.106-1.979l1.137-1.011q1.452-1.325,2.905-2.526c2.4-2.063,4.843-4.043,7.2-5.811,1.179-.926,2.569-1.98,4.043-2.947a181.276,181.276,0,0,1,26.446-15.962c1.137-.632,2.485-1.264,3.79-1.938,2.99-1.431,6.149-2.862,10.065-4.506,1.264-.547,2.569-1.095,3.874-1.558,2.106-.884,4.253-1.685,6.4-2.485,1.263-.463,2.569-.925,3.874-1.39h.042c2.021-.673,4.043-1.346,6.107-1.979,1.39-.463,2.948-.926,4.59-1.43,2.821-.8,5.642-1.6,8.549-2.317,2.316-.631,4.716-1.18,7.16-1.727l1.6-.421c2.316-.463,4.632-.968,6.906-1.39a23.256,23.256,0,0,1,2.316-.421c1.726-.337,3.453-.674,5.221-.969,2.19-.336,4.338-.631,6.486-.969,2.316-.3,4.632-.589,6.949-.8l1.263-.126,2.99-.337c1.685-.167,3.369-.336,5.054-.421,1.642-.127,3.537-.253,5.432-.379a7.64,7.64,0,0,1,1.431-.042c1.306-.127,2.653-.169,4-.212l1.389-.083c7.118-.253,13.939-.211,20.762.042l4.969.253c1.432.084,2.822.168,4.211.252,1.432.085,2.779.211,4.169.337l.505.042c2.232.169,4.422.421,6.613.632l.589.085a.545.545,0,0,1,.253.041c1.389.169,2.737.337,4.126.506s2.737.379,4.085.59c2.737.379,5.474.842,8.128,1.305A247.062,247.062,0,0,1,326.5,187.9h.043l.084.043,1.39.5c1.726.716,3.41,1.391,5.1,2.107,1.179.462,2.61,1.093,4.042,1.725,1.306.59,2.653,1.179,3.958,1.811q1.643.695,3.285,1.516c1.769.884,3.537,1.768,5.221,2.7.759.379,1.769.926,2.822,1.474l.8.422c1.769.968,3.537,1.979,5.265,2.988l1.1.633,2.905,1.769c2.021,1.263,4.042,2.568,6.023,3.916l.589.379,1.137.758.463.336c.337.252.674.463,1.011.716,2.274,1.558,4.632,3.285,6.823,5.054,2.484,1.9,5.137,4.084,7.791,6.442.547.507,1.221,1.1,1.853,1.685l.842.8c2.948,2.737,5.432,5.18,7.665,7.538l.463.463h.042c1.053.926,2.106,1.853,3.158,2.821.885.843,1.811,1.685,2.7,2.569s1.769,1.768,2.653,2.653q1.328,1.39,2.653,2.78c.842.927,1.727,1.854,2.569,2.821,1.684,1.938,3.369,3.918,4.969,5.939,1.642,2.022,3.242,4.085,4.8,6.233a196.355,196.355,0,0,1,19.12,32.216c.379-1.263.758-2.526,1.137-3.831,1.011-3.5,1.937-7.034,2.779-10.7.421-1.727.842-3.5,1.221-5.307v-1.937l.463-.5.043-.042c.379-1.812.673-3.539.968-5.223.126-.758.253-1.474.379-2.19.379-2.147.716-4.211,1.011-6.233.084-.589.168-1.18.252-1.811.211-1.431.379-2.864.548-4.3v-.043a156.785,156.785,0,0,0-11.2-18.782,168.327,168.327,0,0,0-15.287-18.95c-1.1-1.095-1.9-1.979-2.737-2.821-1.221-1.221-2.358-2.4-3.5-3.538-1.979-1.979-4.253-4.084-7.118-6.611-1.221-1.1-2.4-2.105-3.621-3.116-1.053-.926-1.9-1.6-2.7-2.274l-1.1-.926a8.52,8.52,0,0,1-.716-.547c-1.432-1.139-2.863-2.233-4.337-3.328-1.769-1.349-3.537-2.654-5.348-3.959l-.758-.505-1.179-.8c-4.421-3.116-9.012-6.022-13.729-8.8a256.14,256.14,0,0,0-52.3-23.372l-.673-.212c-.758-.253-1.516-.463-2.274-.716-5.139-1.558-9.518-2.821-13.645-3.874a304.313,304.313,0,0,0-96.354-8.506.72.72,0,0,0-.3.042c-.632.042-1.263.042-1.9.125l-1.9.128c-.8.042-1.6.126-2.358.21s-1.474.168-2.232.253c-1.852.125-3.369.294-4.884.5-3.243.379-6.4.8-9.56,1.221-2.4.379-4.843.758-7.244,1.18-1.348.211-2.4.422-3.5.632l-6.57,1.263-1.263.254a8.3,8.3,0,0,0-1.1.211c-.127.042-.253.042-.379.084h-.042c-.969.209-1.937.463-2.864.673-2.568.59-5.1,1.222-7.579,1.853-2.106.549-4.085,1.1-6.065,1.685l-5.1,1.431c-.715.212-1.473.464-2.231.717-.8.209-1.6.463-2.4.715v.042h-.043c-.21.042-.379.128-.589.169l-.505.21a248.968,248.968,0,0,0-59.633,28.132l-.084.042-.084.042-.505.295c-.253.168-.506.337-.8.548-1.221.716-2.569,1.642-3.874,2.568h-.042l-.421.295c-1.39.969-2.738,1.937-4.085,2.949l-.253.167a2.758,2.758,0,0,1-.463.3c-1.348,1.011-2.653,1.979-3.916,2.99-1.642,1.263-3.2,2.527-4.843,3.79L43.419,209.376c-.758.8-1.685,1.768-2.611,2.78L39.8,213.25c-.759.8-1.6,1.768-2.359,2.7l-.379.421c-.252.252-.5.547-.758.843-1.263,1.515-2.4,2.9-3.537,4.337-1.179,1.432-2.316,2.906-3.411,4.38-.884,1.095-1.726,2.316-2.568,3.5-.969,1.263-1.769,2.442-2.527,3.621-.884,1.3-1.642,2.484-2.358,3.621-1.684,2.695-2.99,4.928-4.127,6.992-.631,1.052-1.1,1.979-1.558,2.822-1.221,2.232-2.316,4.379-3.284,6.527-.632,1.3-1.179,2.569-1.769,3.916-.379.928-.716,1.642-1.011,2.4L8.97,262.27c-.926,2.4-1.81,4.927-2.61,7.453-.506,1.39-.843,2.611-1.179,3.833a126.119,126.119,0,0,0-3.327,14.487c-.211,1.137-.379,2.19-.548,3.284-.252,1.981-.505,4-.715,6.064-.127,1.1-.211,2.106-.3,3.117-.084,1.643-.169,3.327-.211,5.012C.042,306.993,0,308.425,0,309.858s.042,2.863.084,4.295c.042,1.726.127,3.412.211,5.054.084,1.011.168,2.022.3,3.033.21,2.147.463,4.169.715,6.19.211,1.263.337,2.232.506,3.2a135.9,135.9,0,0,0,7.033,25.477c.379,1.053.8,2.107,1.263,3.117a102.68,102.68,0,0,0,4.338,9.517c.463,1.011.884,1.853,1.305,2.611l.3.589c1.053,2.022,2.19,4.042,3.368,6.064,1.6,2.653,3.411,5.517,5.769,9.055l2.064,2.9c.926,1.306,1.937,2.612,2.948,3.96.8,1.095,1.6,2.147,2.442,3.116,1.221,1.516,2.358,2.948,3.537,4.295l1.6,1.9c.253.295.505.589.8.884l.842.928c.59.63,1.222,1.3,1.811,2.021l2.443,2.526c1.726,1.811,3.5,3.539,5.305,5.306,1.811,1.685,3.706,3.412,5.6,5.1,1.6,1.39,3.242,2.781,4.885,4.17.547.421,1.179.969,1.81,1.558,1.516,1.18,3.285,2.611,5.138,3.96,1.979,1.515,4,2.99,6.021,4.421l1.053.758a230.138,230.138,0,0,0,25.857,15.624l1.137.589c5.053,2.569,10.108,4.97,15.034,7.076l1.137.505c3.411,1.474,6.949,2.864,10.571,4.253l4.884,1.811c2.443.842,4.843,1.685,7.371,2.484l1.558.547c1.726.548,3.41,1.053,5.179,1.6-.674-2.948-1.263-5.9-1.811-8.929-.421-2.105-.8-4.253-1.137-6.359-.126-.716-.252-1.432-.336-2.148-.127-.631-.211-1.263-.3-1.894a2.127,2.127,0,0,1-.085-.506c-.126-.758-.252-1.516-.337-2.316-.168-.968-.294-1.937-.421-2.947,0-.085-.042-.211-.042-.3,0-.127-.042-.3-.042-.421-.126-.757-.168-1.516-.294-2.315-.043-.422-.085-.8-.127-1.223-.168-1.263-.3-2.568-.463-3.874-.126-1.263-.253-2.526-.379-3.832H140.4a217.226,217.226,0,0,1-40.6-19.708c-1.685-1.053-3.369-2.148-5.013-3.284-1.473-.969-3.116-2.107-4.716-3.243-4.337-3.117-8.8-6.654-13.223-10.486a151.067,151.067,0,0,1-16.3-16.72c-1.137-1.389-2.231-2.737-3.284-4.085-2.106-2.779-3.958-5.432-5.644-8.043a24.022,24.022,0,0,1-1.389-2.149c-.8-1.221-1.516-2.442-2.232-3.7-.842-1.433-1.685-2.99-2.527-4.548l-.421-.842c-.589-1.222-1.221-2.569-1.853-3.917a7.477,7.477,0,0,1-.421-.969c-.547-1.095-1.137-2.526-1.684-3.958-.126-.3-.379-.885-.59-1.474-.294-.758-.631-1.686-1.01-2.7L37.4,341.188l.8-1.684c-.252-.884-.547-1.811-.8-2.695-.379-1.306-.758-2.78-1.1-4.211-.294-1.179-.547-2.569-.8-3.918q-.315-1.7-.631-3.41c-.211-1.474-.421-2.99-.59-4.59-.084-.8-.168-1.854-.252-2.865-.127-.883-.169-1.767-.211-2.653-.084-1.852-.126-3.537-.126-5.3,0-1.349.042-2.653.084-4,0-.547.042-1.263.084-2.021" transform="translate(0 14.413)" fill="#e2e2e2"/>
</svg>
