<svg id="Group_12118" data-name="Group 12118" xmlns="http://www.w3.org/2000/svg" width="571.386" height="571.386" viewBox="0 0 571.386 571.386">
  <path id="Path_13644" data-name="Path 13644" d="M165.726,182.95l-.371.074c-.52.074-1.039.148-1.559.26-2.115.445-4.081.854-6.048,1.262l-1.224.3c-2,.445-4.007.926-5.975,1.447-2.522.63-4.86,1.261-7.2,1.966-1.3.371-2.561.779-3.858,1.187-.557.186-1.113.334-1.633.52-.446,6.344-.668,12.689-.668,18.922a264.979,264.979,0,0,0,7.531,63.336A.515.515,0,0,1,144.8,272c.78-1.894,1.521-3.748,2.337-5.6.78-1.78,1.559-3.562,2.375-5.342.742-1.67,1.522-3.3,2.3-4.9.668-1.373,1.372-2.746,2.077-4.082.52-1.076,1.076-2.114,1.633-3.154.63-1.224,1.26-2.374,1.928-3.561.557-1.039,1.114-2.042,1.708-3.043,1.409-2.486,2.856-4.9,4.378-7.235.667-1.113,1.373-2.226,2.116-3.3.63-1.038,1.3-2.078,2-3.079-.52-6.419-.78-12.912-.78-19.813a252.022,252.022,0,0,1,1.374-26.417c-.853.148-1.67.3-2.523.482" transform="translate(-3.628 -4.817)" fill="#d81525"/>
  <path id="Path_13645" data-name="Path 13645" d="M148.579,128.785l.037-.037c.037,0,.111-.037.149-.037.259-.075.556-.112.89-.186l1.114-.222c.111-.038.259-.038.408-.075l2.708-.556.408-.075,1.3-.222,2.968-.557c.631-.111,1.224-.223,1.856-.3,2.041-.408,4.3-.742,6.6-1.076,2.894-.445,5.751-.816,8.646-1.15,1.446-.186,3.005-.334,4.526-.483.223-.037.446-.037.705-.074,21.15-58.1,62.556-94.056,108.712-94.056,46.008,0,87.378,35.8,108.6,93.722l1.336,3.747c.817,2.449,1.633,4.9,2.375,7.384h-.037l1.224,4.118c.408,1.41.816,2.858,1.187,4.3.7,2.746,1.372,5.528,2,8.311.3,1.41.631,2.821.891,4.267.89,4.266,1.633,8.571,2.263,12.912l.038.037c.074.594.185,1.225.259,1.818v.075c.3,2.078.557,4.192.742,6.27a242.013,242.013,0,0,1,1.558,27.419c0,7.235-.3,14.174-.89,21.186l-.075.7c-.111,1.15-.26,2.412-.371,3.672v.038l-.26,2.634c-.3,2.45-.631,4.861-.964,7.273-.594,4.3-1.411,8.831-2.486,14.248l-.371,1.67c-.371,1.632-.7,3.264-1.113,4.86-.7,2.968-1.484,5.9-2.3,8.756-.334,1.15-.668,2.338-1.039,3.487-.074.26-.147.557-.223.816v.038l-.26.779-.036.148c-.038.074-.038.149-.075.223-.185.557-.334,1.076-.482,1.559-.186.593-.408,1.187-.594,1.781-.371,1.113-.742,2.226-1.113,3.3-.668,1.966-1.411,3.969-2.153,5.973L386.486,310.74a163.552,163.552,0,0,1-10.315,16.622c-.965,1.41-1.855,2.672-2.82,3.932-5.751,7.718-24.377,26.567-27.753,29.609A166.466,166.466,0,0,1,305.006,387.4a217.941,217.941,0,0,0,39.219,8.126c1.336.148,2.709.3,4.118.408A172.276,172.276,0,0,0,375.465,372.4l.631-.816.482-.26a176.869,176.869,0,0,0,23.672-27.456l.667-1.039a2.72,2.72,0,0,1,.186-.222c.074-.112.185-.26.3-.409.7-1,1.373-2,2-3.042,1.484-2.152,2.856-4.3,4.156-6.53,1.41-2.226,2.746-4.526,3.97-6.827,1.669-2.931,3.265-5.9,4.711-8.978.964-1.819,1.819-3.636,2.635-5.492.817-1.744,1.632-3.524,2.411-5.343q3.842-8.849,6.976-18.328c.444-1.188.852-2.45,1.261-3.673l.185-.594.075-.223a261.145,261.145,0,0,0,11.947-79.1c0-5.825-.223-11.762-.594-17.735l-.408-4.824a259.824,259.824,0,0,0-7.31-43.67l-1.112-4.341C410.232,53.466,353.315,0,289.609,0c-62.482,0-118.434,51.388-141.4,128.823v.037c.111-.037.223-.037.334-.074Z" transform="translate(-3.921)" fill="#d81525"/>
  <path id="Path_13646" data-name="Path 13646" d="M447.342,148.246q.556,2.56,1,5.121a9.236,9.236,0,0,1,.3,1.372q.722,3.786,1.335,7.569a.472.472,0,0,1,.037.223c.445,2.783.852,5.6,1.225,8.385.371,2.82.706,5.676,1,8.5a1.834,1.834,0,0,1,.075.444,1.675,1.675,0,0,0,.037.409c.036.223.036.446.074.667,58.1,21.187,94.057,62.557,94.057,108.676,0,46.156-35.953,87.526-94.057,108.712-1.113.409-2.264.817-3.413,1.225a228.563,228.563,0,0,1-43.151,10.24l-3.636.482c-1.186.149-2.375.261-3.6.372a249.473,249.473,0,0,1-46.378.593c-.668-.038-1.336-.074-2-.149-2.078-.11-4.231-.37-6.381-.594-.149-.037-.335-.037-.482-.073-2.969-.335-5.864-.742-8.757-1.187a217.171,217.171,0,0,1-44.115-11.391c-.483-.148-.965-.333-1.41-.519-.222-.075-.445-.186-.669-.26-25.712-9.831-47.677-24.265-63.484-41.7-.89-.816-1.781-1.633-2.67-2.486s-1.744-1.707-2.635-2.6c-12.131-12.282-22.595-27.6-30.87-45.154-.481,1.558-.963,3.154-1.41,4.787-.853,2.93-1.595,5.935-2.3,8.979-.259,1.075-.482,2.152-.7,3.265-.11.482-.222.965-.334,1.447-.185.89-.371,1.818-.556,2.745-.371,1.967-.741,3.933-1.076,5.937-.334,1.855-.593,3.748-.891,5.639-.223,1.6-.445,3.192-.63,4.825v.074a4.661,4.661,0,0,1,.408.742c.038.074.112.185.149.26.222.444.445.891.668,1.3.222.445.481.889.705,1.3a1.519,1.519,0,0,0,.184.335c.037.112.112.185.149.3a.036.036,0,0,1,.037.036,2.2,2.2,0,0,1,.149.3c0,.037.038.037.038.075.371.63.742,1.3,1.113,1.966.408.667.779,1.336,1.187,1.966.26.445.52.891.816,1.335.408.7.854,1.373,1.3,2.078.075.111.148.224.222.334.3.52.667,1.039,1,1.522.26.409.557.779.817,1.188.779,1.187,1.595,2.374,2.485,3.56.594.855,1.187,1.671,1.819,2.486a.131.131,0,0,0,.037.075c1.039,1.373,2.116,2.745,3.191,4.081,2.115,2.634,4.378,5.194,6.753,7.755.037.037.075.037.075.073a.136.136,0,0,0,.036.075h.037a177.32,177.32,0,0,0,29.089,25.044c4.3,2.968,8.72,5.787,13.32,8.459a227.82,227.82,0,0,0,43.819,19.554c.556.185,1.15.371,1.707.557,2.449.779,4.9,1.522,7.347,2.189q4.563,1.337,9.238,2.449a266.875,266.875,0,0,0,80.182,7.012c1.929-.11,3.822-.259,5.714-.407a258.607,258.607,0,0,0,43.67-7.311c1.929-.482,3.859-1,5.75-1.558C523.33,409.6,576.164,352.982,576.164,289.609c0-62.482-51.389-118.4-128.822-141.363" transform="translate(-4.778 -3.916)" fill="#d81525"/>
  <path id="Path_13647" data-name="Path 13647" d="M400.276,159.715c-.333-1.744-.7-3.451-1.15-5.157-.409-1.707-.854-3.413-1.3-5.12s-.891-3.376-1.373-5.083c-.444-1.67-.964-3.376-1.522-5.009-.073-.26-.147-.52-.222-.742-.073-.26-.149-.52-.221-.743h-.039c-6.715-.445-12.91-.667-18.885-.667a266.214,266.214,0,0,0-63.373,7.531q3.117,1.224,6.123,2.56c1.411.594,2.783,1.188,4.156,1.818.779.334,1.558.668,2.3,1.076,1.41.631,2.821,1.336,4.231,2a15.2,15.2,0,0,1,1.558.779c2.6,1.3,5.158,2.635,7.643,4.044,1.634.854,3.3,1.781,4.9,2.746,2.04,1.151,4.007,2.338,5.973,3.6,1.15.7,2.3,1.447,3.451,2.188q1.615,1,3.228,2.114c6.679-.519,13.357-.779,19.813-.779a254.035,254.035,0,0,1,26.344,1.41h.037c-.148-.927-.335-1.855-.522-2.745a13.167,13.167,0,0,0-.332-1.744c-.261-1.373-.52-2.709-.817-4.081" transform="translate(-8.251 -3.622)" fill="#d81525"/>
  <path id="Path_13648" data-name="Path 13648" d="M426.34,448.084a268.791,268.791,0,0,1-29.09,4.341v.037c-7.087,19.405-16.473,36.473-28.013,50.869l-1.262,1.522c-.853,1.039-1.818,2.152-2.782,3.264-1,1.188-2.04,2.337-3.079,3.45a141.3,141.3,0,0,1-12.579,11.8c-.482.407-1.038.852-1.594,1.3-1.076.853-2.3,1.781-3.525,2.672l-.779.594a98.842,98.842,0,0,1-28.273,14.359q-1.058.334-2.227.668l-3.042.816c-.853.224-1.893.483-2.969.705l-3.153.631c-1.744.334-3.451.557-5.157.742-1.744.186-3.488.371-5.306.482h-.556c-.965.074-2.3.112-3.6.112h-.668c-1.039,0-2.077-.038-3.116-.074l-.63-.038c-2.375-.073-4.749-.333-6.753-.593l-.668-.111a2.141,2.141,0,0,1-.519-.074c-.3-.037-.594-.075-.816-.111-.148-.037-.3-.037-.408-.074l-.557-.074a98.365,98.365,0,0,1-11.5-2.635,105.428,105.428,0,0,1-12.1-4.6l-2.895-1.41c-2.856-1.448-5.64-3.005-8.57-4.824-2.6-1.632-5.047-3.3-7.384-5.047-2.374-1.743-4.638-3.6-7.05-5.713a117.565,117.565,0,0,1-10.018-9.609c-2.3-2.485-4.341-4.786-6.233-7.087-2.857-3.561-5.788-7.495-8.608-11.687-2.671-3.933-5.268-8.238-7.829-12.8-1.632-3.043-3.19-6.048-4.712-9.165-2.115-4.416-4.192-9.165-6.271-14.545-.482-1.262-.964-2.485-1.41-3.747q-.611-1.725-1.224-3.451a231.278,231.278,0,0,1-10.24-43.077l-.038-.409c-.3-2.189-.593-4.452-.815-6.714-.149-1.486-.3-3.006-.408-4.528-.668-7.2-1-14.656-1-22.187,0-5.38.148-10.611.482-15.77h-.074l.334-3.969.074-1.151v-.148l.037-.52.038-.26a.628.628,0,0,1,.037-.259q.111-1.168.222-2.338c.074-.7.149-1.372.223-2.041,0-.074.038-.11.038-.186.037-.481.11-.964.147-1.447.261-2.152.52-4.3.817-6.456q.445-3.115,1-6.233c.26-1.708.594-3.414.89-5.083v-.039c.075-.407.149-.741.223-1.112.408-2.041.816-4.045,1.262-6.048a.7.7,0,0,0,.074-.3c.445-2,.928-3.969,1.447-5.937.446-1.854.928-3.672,1.448-5.49,1.187-4.193,2.449-8.312,3.858-12.356.779-2.189,1.559-4.34,2.375-6.455,1.67-4.377,3.488-8.682,5.454-12.838q.557-1.279,1.225-2.56c9.239-19.109,21.186-35.545,35.025-48.124l.853-.853c12.8-13.987,29.645-26.008,49.384-35.322-1.744-.556-3.524-1.039-5.343-1.558q-3.172-.89-6.456-1.67c-2.225-.519-4.489-1.039-6.753-1.521-2.226-.445-4.489-.89-6.752-1.3q-3.451-.613-6.9-1.114c-1.781-.3-3.561-.519-5.343-.741a.036.036,0,0,0-.037.037,142.816,142.816,0,0,0-33.429,23.523,172.98,172.98,0,0,0-24.526,28.458v.036l-1,1.448c-1.261,1.817-2.486,3.673-3.71,5.6q-1.725,2.672-3.339,5.454c-.816,1.3-1.558,2.6-2.263,3.9-.445.779-.891,1.6-1.336,2.412-.964,1.669-1.854,3.376-2.709,5.083-.223.445-.445.891-.668,1.373-.816,1.522-1.559,3.079-2.3,4.637-.89,1.855-1.78,3.786-2.633,5.752-.817,1.817-1.633,3.673-2.375,5.6a5.943,5.943,0,0,0-.335.854c-.371.891-.742,1.781-1.076,2.709q-.223.556-.445,1.112l-.445,1.113c-.187.482-.371,1-.557,1.484-.3.779-.557,1.521-.816,2.262a6.223,6.223,0,0,0-.26.78c-.371.927-.7,1.892-1.039,2.82l-1.6,4.9c-.26.781-.519,1.6-.742,2.375-.817,2.672-1.559,5.307-2.227,7.866-.742,2.746-1.484,5.492-2.115,8.275-.631,2.634-1.224,5.343-1.818,8.089a19.008,19.008,0,0,1-.371,2.041c-.373,1.854-.743,3.9-1.077,5.9l-.445,2.784c-.334,1.965-.594,3.6-.779,5.305l-.482,3.228c-.186,1.6-.372,3.265-.52,4.934l-.075.408c-.112,1-.223,1.929-.3,2.894-.187,1.967-.334,3.747-.483,5.528l-.222,3.155c-.074,1.891-.186,3.821-.26,5.788l-.111,2.745c-.112,2.857-.149,5.713-.149,8.571,0,6.42.223,12.689.668,19.182h-.037l.3,3.414v.037c.261,3.042.556,6.085.929,9.089v.038c.073.705.148,1.447.26,2.189.148,1.3.333,2.635.518,3.97.074.519.148,1,.223,1.52.26,1.819.556,3.6.854,5.381.3,1.819.631,3.636.965,5.417.742,4.045,1.633,8.015,2.561,11.911.332,1.372.667,2.708,1,4.044l.186.742c.036.148.074.3.111.445v.037a6.352,6.352,0,0,0,.26.89c.073.3.149.594.222.853.557,2.041,1.15,4.045,1.707,6.011a6.885,6.885,0,0,1,.259.817l.854,2.782c2.078,6.6,4.378,13.024,6.826,19,.26.557.52,1.188.742,1.819a215.864,215.864,0,0,0,17.921,33.986l.371.631a2.262,2.262,0,0,1,.3.445,181.194,181.194,0,0,0,24.785,30.276c2.783,2.784,5.714,5.454,8.943,8.164,20.257,16.992,43.521,27.455,67.342,30.2.854.112,1.632.223,2.412.3,1.632.112,3.339.26,5.045.334h.075c.481,0,1.187.036,1.855.075l.7.074h3.3c.852,0,1.781,0,2.671-.036a13.075,13.075,0,0,0,1.41-.076h.408a7.315,7.315,0,0,1,.854-.036l4.082-.3c1.26-.076,2.522-.223,3.747-.409,1.707-.185,3.228-.334,4.786-.594,2.041-.333,4.119-.742,6.159-1.186,2.523-.558,4.972-1.189,7.384-1.93a86.32,86.32,0,0,0,11.2-3.785,126.682,126.682,0,0,0,12.726-5.9c3.71-1.967,7.421-4.157,11.391-6.79,3.005-2,5.566-3.859,7.866-5.6,1.485-1.151,2.931-2.3,4.342-3.488,1.149-.891,2.151-1.781,3.19-2.671,2.04-1.781,4.081-3.674,6.122-5.6a189.06,189.06,0,0,0,34.1-45.451l1.225-2.264c1.67-3.079,3.08-5.974,4.377-8.72l1.522-3.227c1.188-2.6,2.374-5.344,3.6-8.386,1.707-4.231,3.19-8.163,4.526-11.984.631-1.782,1.223-3.563,1.818-5.38v-.037l.26-.891c.334-1,1.068-3.285,1.4-4.361l-3.109.724Z" transform="translate(-3.628 -4.778)" fill="#d81525"/>
  <path id="Path_13649" data-name="Path 13649" d="M189.926,448.182h.111a265.808,265.808,0,0,0,82.109-6.864,224.1,224.1,0,0,1-43.374-22.93c-6.381.52-12.986.779-19.887.779-8.349,0-16.919-.445-25.49-1.3a6.537,6.537,0,0,1-.853-.075h-.074c.223,1.225.407,2.413.7,3.6.408,2.3.892,4.561,1.373,6.827a202.647,202.647,0,0,0,5.38,19.961" transform="translate(-4.823 -11.035)" fill="#d81525"/>
  <path id="Path_13650" data-name="Path 13650" d="M417.756,401.983c.37-.073.779-.148,1.151-.223l1.112-.222c2.153-.333,4.23-.743,6.345-1.225,2.19-.445,4.378-.927,6.53-1.483a4.588,4.588,0,0,0,.668-.186c2.339-.557,4.676-1.187,7.012-1.855.371-.075.741-.187,1.115-.3,2.077-.595,4.117-1.225,6.158-1.892.111-.038.221-.075.334-.11.445-6.384.668-12.615.668-18.924a265.4,265.4,0,0,0-7.534-63.373l-.036.038c-1.372,3.451-2.856,6.828-4.34,10.13-.519,1.113-1,2.227-1.523,3.3-1.594,3.414-3.265,6.753-4.971,9.98-.63,1.3-1.335,2.56-2.078,3.823-.7,1.26-1.409,2.485-2.078,3.673-1.408,2.411-2.817,4.711-4.267,6.975-.555.891-1.151,1.818-1.743,2.708-.557.928-1.149,1.817-1.781,2.709-.038.075-.074.11-.111.186,0,.147.037.3.037.445.482,6.345.741,12.689.741,19.4a251.271,251.271,0,0,1-1.409,26.382Z" transform="translate(-11.03 -8.245)" fill="#d81525"/>
  <path id="Path_13651" data-name="Path 13651" d="M29.831,284.011c.074-1.113.186-2.151.3-3.19a58.74,58.74,0,0,1,.779-6.048c.112-.78.26-1.744.483-2.709a18.223,18.223,0,0,1,.519-2.3,54.262,54.262,0,0,1,1.633-6.158c.223-.818.594-1.967,1-3.043.223-.816.668-1.93,1.076-3.005.594-1.67,1.336-3.414,2.115-5.195.668-1.485,1.373-2.968,2.19-4.49.816-1.633,1.744-3.3,2.709-4.972.557-.964,1.15-1.893,1.744-2.857,1-1.67,2.227-3.525,3.71-5.565l1.93-2.635c1.335-1.744,2.634-3.413,4.006-5.009,2-2.412,4.193-4.823,6.531-7.124,1-1.039,2.115-2.152,3.264-3.228.557-.556,1.225-1.15,1.856-1.744l1-.891q1.279-1.167,2.56-2.226c2.115-1.818,4.267-3.562,6.345-5.12,1.039-.815,2.264-1.744,3.562-2.6a159.709,159.709,0,0,1,23.3-14.063c1-.557,2.19-1.113,3.339-1.707,2.635-1.261,5.417-2.522,8.868-3.97,1.114-.482,2.264-.964,3.413-1.372,1.856-.779,3.747-1.484,5.64-2.19,1.113-.408,2.264-.815,3.413-1.225h.037c1.781-.593,3.562-1.186,5.38-1.744,1.225-.408,2.6-.816,4.044-1.26,2.486-.706,4.971-1.411,7.532-2.041,2.041-.556,4.155-1.04,6.308-1.522l1.41-.371c2.041-.408,4.081-.853,6.085-1.225a20.489,20.489,0,0,1,2.041-.371c1.521-.3,3.042-.594,4.6-.853,1.93-.3,3.822-.556,5.714-.854,2.041-.26,4.081-.519,6.122-.7l1.113-.111,2.635-.3c1.485-.147,2.969-.3,4.453-.371,1.447-.112,3.116-.223,4.786-.334a6.728,6.728,0,0,1,1.261-.037c1.151-.112,2.338-.149,3.525-.187l1.224-.073c6.271-.223,12.281-.186,18.292.037l4.378.223c1.262.074,2.487.148,3.71.222,1.262.075,2.449.186,3.673.3l.445.037c1.967.149,3.9.371,5.826.557l.519.075a.48.48,0,0,1,.223.037c1.224.149,2.412.3,3.635.446s2.412.334,3.6.519c2.412.334,4.823.741,7.161,1.15a217.673,217.673,0,0,1,40.813,11.242h.038l.074.038,1.225.445c1.521.631,3,1.225,4.489,1.856,1.039.407,2.3.963,3.561,1.52,1.151.52,2.338,1.039,3.488,1.6q1.447.612,2.894,1.336c1.559.779,3.117,1.558,4.6,2.375.669.334,1.559.816,2.487,1.3l.7.372c1.559.853,3.117,1.743,4.638,2.633l.965.558,2.56,1.558c1.781,1.113,3.561,2.263,5.306,3.45l.519.334,1,.668.408.3c.3.222.594.408.891.631,2,1.373,4.081,2.894,6.011,4.453,2.189,1.67,4.526,3.6,6.864,5.676.482.446,1.076.965,1.633,1.485l.742.7c2.6,2.412,4.786,4.564,6.753,6.641l.408.408h.037c.928.816,1.856,1.633,2.783,2.486.78.742,1.6,1.484,2.375,2.264s1.559,1.558,2.338,2.337q1.17,1.224,2.338,2.449c.742.816,1.522,1.633,2.264,2.485,1.484,1.707,2.968,3.452,4.378,5.232,1.447,1.781,2.857,3.6,4.229,5.491a173,173,0,0,1,16.845,28.384c.334-1.113.668-2.226,1-3.375.891-3.081,1.707-6.2,2.449-9.424.371-1.522.742-3.08,1.076-4.676v-1.707l.408-.445.038-.037c.334-1.6.593-3.118.853-4.6.111-.668.223-1.3.334-1.929.334-1.891.631-3.711.891-5.491.074-.519.148-1.039.222-1.6.186-1.261.334-2.523.483-3.785v-.038a138.135,138.135,0,0,0-9.869-16.548,148.306,148.306,0,0,0-13.469-16.7c-.965-.964-1.67-1.744-2.412-2.486-1.076-1.076-2.078-2.116-3.08-3.118-1.744-1.743-3.747-3.6-6.271-5.825-1.076-.965-2.115-1.855-3.19-2.745-.928-.816-1.67-1.41-2.375-2l-.965-.816A7.514,7.514,0,0,1,353,185.5c-1.262-1-2.523-1.967-3.821-2.932-1.559-1.188-3.117-2.338-4.712-3.488l-.668-.445-1.039-.705c-3.9-2.745-7.94-5.306-12.1-7.754a225.669,225.669,0,0,0-46.082-20.592l-.593-.187c-.668-.223-1.336-.407-2-.631-4.527-1.373-8.386-2.485-12.022-3.413a268.112,268.112,0,0,0-84.892-7.494.634.634,0,0,0-.26.037c-.557.037-1.113.037-1.67.11l-1.67.113c-.7.037-1.41.111-2.078.185s-1.3.148-1.967.223c-1.632.11-2.969.259-4.3.444-2.857.334-5.64.7-8.423,1.076-2.115.334-4.267.668-6.382,1.039-1.188.186-2.115.372-3.079.556l-5.788,1.113-1.113.223a7.309,7.309,0,0,0-.965.186c-.112.037-.223.037-.334.074H147c-.854.185-1.707.408-2.524.593-2.263.52-4.489,1.077-6.678,1.633-1.856.484-3.6.965-5.343,1.485l-4.49,1.261c-.63.187-1.3.409-1.966.632-.706.185-1.41.408-2.115.63v.037h-.038c-.185.037-.334.113-.519.149l-.445.185a219.353,219.353,0,0,0-52.539,24.785l-.074.037-.074.037-.445.26c-.223.148-.446.3-.7.483-1.076.631-2.264,1.447-3.413,2.262H65.6l-.371.26c-1.225.854-2.413,1.707-3.6,2.6l-.223.148a2.432,2.432,0,0,1-.408.26c-1.188.891-2.338,1.744-3.45,2.635-1.447,1.113-2.82,2.226-4.267,3.339l-15.027,13.84c-.668.705-1.485,1.558-2.3,2.449l-.89.964c-.669.705-1.411,1.558-2.079,2.375l-.334.371c-.222.222-.445.482-.668.742-1.113,1.335-2.115,2.558-3.116,3.821-1.039,1.262-2.041,2.56-3.005,3.859-.779.964-1.521,2.041-2.263,3.08-.854,1.113-1.559,2.151-2.227,3.19-.779,1.149-1.447,2.189-2.078,3.19-1.484,2.374-2.635,4.341-3.636,6.16-.556.927-.965,1.744-1.373,2.486-1.076,1.967-2.041,3.858-2.894,5.751-.557,1.15-1.039,2.264-1.559,3.45-.334.818-.631,1.447-.891,2.115l-1.039,2.6c-.816,2.114-1.595,4.341-2.3,6.566-.446,1.225-.743,2.3-1.039,3.377A111.116,111.116,0,0,0,1.633,270.1c-.186,1-.334,1.93-.483,2.894-.222,1.745-.445,3.525-.63,5.343-.112.965-.186,1.855-.26,2.746-.074,1.448-.149,2.931-.186,4.416-.037,1.3-.074,2.56-.074,3.822s.037,2.522.074,3.784c.037,1.521.112,3.006.186,4.453.074.891.148,1.781.26,2.672.185,1.891.408,3.673.63,5.454.186,1.113.3,1.967.446,2.82a119.731,119.731,0,0,0,6.2,22.447c.334.927.7,1.856,1.113,2.747a90.47,90.47,0,0,0,3.822,8.384c.408.891.779,1.633,1.15,2.3l.26.519c.928,1.781,1.93,3.561,2.968,5.343,1.411,2.338,3.005,4.861,5.083,7.978l1.819,2.559c.816,1.151,1.707,2.3,2.6,3.489.7.965,1.41,1.891,2.152,2.745,1.076,1.336,2.078,2.6,3.116,3.784l1.41,1.671c.223.26.445.519.7.779l.742.818c.52.555,1.077,1.149,1.6,1.781l2.153,2.225c1.521,1.6,3.079,3.118,4.674,4.675,1.6,1.484,3.265,3.006,4.935,4.489,1.41,1.225,2.857,2.45,4.3,3.674.482.371,1.039.854,1.595,1.373,1.336,1.039,2.895,2.3,4.527,3.489,1.744,1.335,3.524,2.634,5.305,3.9l.928.668A202.765,202.765,0,0,0,87.526,414.1l1,.519c4.452,2.264,8.905,4.379,13.246,6.234l1,.445c3.005,1.3,6.122,2.523,9.313,3.747l4.3,1.6c2.153.742,4.267,1.484,6.494,2.189l1.373.482c1.521.483,3,.928,4.563,1.411-.594-2.6-1.113-5.2-1.6-7.867-.371-1.855-.7-3.747-1-5.6-.111-.631-.222-1.261-.3-1.893-.112-.556-.186-1.113-.26-1.669a1.874,1.874,0,0,1-.075-.446c-.111-.668-.222-1.335-.3-2.041-.148-.853-.259-1.707-.371-2.6,0-.075-.037-.186-.037-.26,0-.112-.037-.26-.037-.371-.111-.667-.148-1.335-.259-2.04-.038-.372-.075-.706-.112-1.077-.148-1.113-.26-2.262-.408-3.413-.111-1.113-.223-2.225-.334-3.376H123.7A191.376,191.376,0,0,1,87.935,380.7c-1.485-.928-2.968-1.892-4.416-2.894-1.3-.854-2.746-1.856-4.155-2.858-3.821-2.746-7.755-5.862-11.65-9.238a133.1,133.1,0,0,1-14.36-14.731c-1-1.224-1.966-2.411-2.894-3.6-1.856-2.448-3.487-4.786-4.972-7.086a21.158,21.158,0,0,1-1.224-1.893c-.7-1.076-1.336-2.152-1.967-3.264-.742-1.263-1.485-2.635-2.227-4.007l-.371-.742c-.519-1.076-1.076-2.264-1.633-3.451a6.585,6.585,0,0,1-.371-.854c-.482-.965-1-2.226-1.484-3.487-.111-.26-.334-.779-.52-1.3-.259-.668-.556-1.486-.89-2.376l-1.856-2,.7-1.484c-.222-.779-.482-1.6-.7-2.374-.334-1.151-.668-2.45-.965-3.71-.259-1.039-.482-2.264-.7-3.452q-.277-1.5-.556-3c-.186-1.3-.371-2.634-.52-4.044-.074-.705-.148-1.633-.222-2.524-.112-.778-.149-1.557-.186-2.337-.074-1.632-.111-3.116-.111-4.674,0-1.188.037-2.338.074-3.526,0-.482.037-1.113.074-1.781" transform="translate(0 -3.622)" fill="#d81525"/>
</svg>
